<svg width="38" height="38" viewBox="0 0 38 38" fill="none" xmlns="http://www.w3.org/2000/svg">
<path fill-rule="evenodd" clip-rule="evenodd" d="M18.1277 33.461H3.16519C3.07236 33.461 2.98334 33.4241 2.9177 33.3585C2.85206 33.2928 2.81519 33.2038 2.81519 33.111V30.5717C2.81519 29.1192 3.85294 27.8382 5.45244 26.7497C8.30844 24.8002 12.9302 23.5717 18.1277 23.5717C18.4758 23.5717 18.8096 23.4335 19.0558 23.1873C19.3019 22.9412 19.4402 22.6073 19.4402 22.2592C19.4402 21.9111 19.3019 21.5773 19.0558 21.3312C18.8096 21.085 18.4758 20.9467 18.1277 20.9467C12.3142 20.9467 7.16744 22.401 3.97194 24.5797C1.53419 26.2422 0.190186 28.3545 0.190186 30.5717V33.111C0.190186 33.9 0.503622 34.6567 1.06154 35.2146C1.61946 35.7725 2.37617 36.086 3.16519 36.086H18.1277C18.4758 36.086 18.8096 35.9477 19.0558 35.7016C19.3019 35.4554 19.4402 35.1216 19.4402 34.7735C19.4402 34.4254 19.3019 34.0915 19.0558 33.8454C18.8096 33.5993 18.4758 33.461 18.1277 33.461ZM18.1277 0.188232C12.8147 0.188232 8.50269 4.50023 8.50269 9.81323C8.50269 15.1262 12.8147 19.4382 18.1277 19.4382C23.4407 19.4382 27.7527 15.1262 27.7527 9.81323C27.7527 4.50023 23.4407 0.188232 18.1277 0.188232ZM18.1277 2.81323C21.9917 2.81323 25.1277 5.94923 25.1277 9.81323C25.1277 13.6772 21.9917 16.8132 18.1277 16.8132C14.2637 16.8132 11.1277 13.6772 11.1277 9.81323C11.1277 5.94923 14.2637 2.81323 18.1277 2.81323ZM28.6277 22.3922C27.0055 22.4393 25.4656 23.1168 24.3349 24.2808C23.2041 25.4449 22.5716 27.0038 22.5716 28.6266C22.5716 30.2494 23.2041 31.8084 24.3349 32.9724C25.4656 34.1364 27.0055 34.8139 28.6277 34.861C32.0682 34.861 34.8629 32.0662 34.8629 28.6257C34.8629 25.1852 32.0682 22.3922 28.6277 22.3922ZM28.6277 25.0172C30.6192 25.0172 32.2379 26.6342 32.2379 28.6257C32.2379 30.6172 30.6192 32.236 28.6277 32.236C26.6362 32.236 25.0174 30.6172 25.0174 28.6257C25.0174 26.6342 26.6362 25.0172 28.6277 25.0172Z" fill="#BFBFBF"/>
<path fill-rule="evenodd" clip-rule="evenodd" d="M29.9429 23.7037V20.7515C29.9429 20.4034 29.8046 20.0695 29.5584 19.8234C29.3123 19.5772 28.9785 19.439 28.6304 19.439C28.2823 19.439 27.9484 19.5772 27.7023 19.8234C27.4562 20.0695 27.3179 20.4034 27.3179 20.7515V23.7055C27.3181 24.0536 27.4566 24.3873 27.7029 24.6333C27.9492 24.8793 28.2831 25.0173 28.6312 25.0171C28.9793 25.0169 29.3131 24.8784 29.5591 24.632C29.805 24.3857 29.9431 24.0518 29.9429 23.7037ZM33.0386 26.075L35.1264 23.9855C35.3724 23.7395 35.5106 23.4058 35.5106 23.058C35.5106 22.7101 35.3724 22.3765 35.1264 22.1305C34.8804 21.8845 34.5468 21.7463 34.1989 21.7463C33.851 21.7463 33.5174 21.8845 33.2714 22.1305L31.1819 24.2182C30.9364 24.4648 30.7986 24.7986 30.7986 25.1466C30.7986 25.4945 30.9364 25.8283 31.1819 26.075C31.4285 26.3204 31.7623 26.4582 32.1102 26.4582C32.4582 26.4582 32.792 26.3204 33.0386 26.075ZM33.5514 29.939H36.5054C36.8535 29.939 37.1873 29.8007 37.4334 29.5545C37.6796 29.3084 37.8179 28.9746 37.8179 28.6265C37.8179 28.2784 37.6796 27.9445 37.4334 27.6984C37.1873 27.4522 36.8535 27.314 36.5054 27.314H33.5514C33.2033 27.314 32.8694 27.4522 32.6233 27.6984C32.3772 27.9445 32.2389 28.2784 32.2389 28.6265C32.2389 28.9746 32.3772 29.3084 32.6233 29.5545C32.8694 29.8007 33.2033 29.939 33.5514 29.939ZM31.1819 33.0347L33.2714 35.1225C33.3932 35.2443 33.5378 35.3409 33.6969 35.4068C33.8561 35.4727 34.0266 35.5066 34.1989 35.5066C34.3711 35.5066 34.5417 35.4727 34.7008 35.4068C34.86 35.3409 35.0046 35.2443 35.1264 35.1225C35.2482 35.0007 35.3448 34.8561 35.4107 34.6969C35.4766 34.5378 35.5106 34.3672 35.5106 34.195C35.5106 34.0227 35.4766 33.8521 35.4107 33.693C35.3448 33.5339 35.2482 33.3893 35.1264 33.2675L33.0386 31.178C32.792 30.9325 32.4582 30.7947 32.1102 30.7947C31.7623 30.7947 31.4285 30.9325 31.1819 31.178C30.9364 31.4246 30.7986 31.7584 30.7986 32.1063C30.7986 32.4543 30.9364 32.7881 31.1819 33.0347ZM27.3179 33.5475V36.5015C27.3179 36.8496 27.4562 37.1834 27.7023 37.4295C27.9484 37.6757 28.2823 37.814 28.6304 37.814C28.9785 37.814 29.3123 37.6757 29.5584 37.4295C29.8046 37.1834 29.9429 36.8496 29.9429 36.5015V33.5475C29.9429 33.1994 29.8046 32.8655 29.5584 32.6194C29.3123 32.3732 28.9785 32.235 28.6304 32.235C28.2823 32.235 27.9484 32.3732 27.7023 32.6194C27.4562 32.8655 27.3179 33.1994 27.3179 33.5475ZM24.2221 31.178L22.1344 33.2675C22.0126 33.3893 21.916 33.5339 21.85 33.693C21.7841 33.8521 21.7502 34.0227 21.7502 34.195C21.7502 34.3672 21.7841 34.5378 21.85 34.6969C21.916 34.8561 22.0126 35.0007 22.1344 35.1225C22.2562 35.2443 22.4008 35.3409 22.5599 35.4068C22.7191 35.4727 22.8896 35.5066 23.0619 35.5066C23.2341 35.5066 23.4047 35.4727 23.5638 35.4068C23.723 35.3409 23.8676 35.2443 23.9894 35.1225L26.0789 33.0347C26.3243 32.7881 26.4621 32.4543 26.4621 32.1063C26.4621 31.7584 26.3243 31.4246 26.0789 31.178C25.8323 30.9325 25.4985 30.7947 25.1505 30.7947C24.8025 30.7947 24.4687 30.9325 24.2221 31.178ZM23.7076 27.314H20.7554C20.4073 27.314 20.0734 27.4522 19.8273 27.6984C19.5812 27.9445 19.4429 28.2784 19.4429 28.6265C19.4429 28.9746 19.5812 29.3084 19.8273 29.5545C20.0734 29.8007 20.4073 29.939 20.7554 29.939H23.7076C24.0557 29.939 24.3896 29.8007 24.6357 29.5545C24.8818 29.3084 25.0201 28.9746 25.0201 28.6265C25.0201 28.2784 24.8818 27.9445 24.6357 27.6984C24.3896 27.4522 24.0557 27.314 23.7076 27.314ZM26.0789 24.2182L23.9894 22.1305C23.8676 22.0087 23.723 21.912 23.5638 21.8461C23.4047 21.7802 23.2341 21.7463 23.0619 21.7463C22.8896 21.7463 22.7191 21.7802 22.5599 21.8461C22.4008 21.912 22.2562 22.0087 22.1344 22.1305C22.0126 22.2523 21.916 22.3969 21.85 22.556C21.7841 22.7151 21.7502 22.8857 21.7502 23.058C21.7502 23.2302 21.7841 23.4008 21.85 23.5599C21.916 23.7191 22.0126 23.8637 22.1344 23.9855L24.2221 26.075C24.4687 26.3204 24.8025 26.4582 25.1505 26.4582C25.4985 26.4582 25.8323 26.3204 26.0789 26.075C26.3243 25.8283 26.4621 25.4945 26.4621 25.1466C26.4621 24.7986 26.3243 24.4648 26.0789 24.2182Z" fill="#BFBFBF"/>
</svg>
