<svg width="38" height="36" viewBox="0 0 38 36" fill="none" xmlns="http://www.w3.org/2000/svg">
<path fill-rule="evenodd" clip-rule="evenodd" d="M22.8141 33.4096C22.8141 32.1031 21.7549 31.044 20.4485 31.044H17.5517C16.9243 31.044 16.3226 31.2932 15.879 31.7369C15.4354 32.1805 15.1861 32.7822 15.1861 33.4096C15.1861 34.7161 16.2453 35.7752 17.5517 35.7752H20.4485C21.7549 35.7752 22.8141 34.7161 22.8141 33.4096ZM5.07323 27.3097C5.46836 27.3399 5.9464 27.3572 6.42658 27.3291C6.72755 28.8552 7.54897 30.2295 8.75055 31.2173C9.95214 32.2051 11.4594 32.7451 13.0149 32.7451H13.9175C13.8373 33.1845 13.8371 33.6347 13.9169 34.074H13.0149C11.1033 34.074 9.25414 33.3933 7.79888 32.1537C6.34362 30.9142 5.37735 29.1969 5.07323 27.3097ZM4.39726 25.8957C3.19585 25.6931 2.10503 25.0715 1.31838 24.1411C0.531727 23.2107 0.100104 22.0317 0.100098 20.8133L0.100098 17.6725C0.100098 16.3055 0.643106 14.9946 1.60967 14.028C2.57623 13.0614 3.88718 12.5184 5.25411 12.5184H5.59719C6.14559 5.59655 11.9368 0.150024 19.0001 0.150024C26.0634 0.150024 31.8546 5.59655 32.403 12.5184H32.7461C34.113 12.5184 35.424 13.0614 36.3905 14.028C37.3571 14.9946 37.9001 16.3055 37.9001 17.6725V20.8133C37.9001 22.1803 37.3571 23.4912 36.3905 24.4578C35.424 25.4244 34.113 25.9674 32.7461 25.9674H31.2252C30.5944 25.9674 30.083 25.456 30.083 24.8253V13.5955C30.083 7.47451 25.121 2.51252 19.0001 2.51252C12.8792 2.51252 7.91717 7.47451 7.91717 13.5955V24.8253C7.91717 25.2706 7.66224 25.6565 7.29029 25.8449C6.26644 26.2001 4.67862 25.9431 4.39726 25.8957Z" fill="#BFBFBF"/>
<defs>
<linearGradient id="paint0_linear_91_10369" x1="19.0001" y1="0.150024" x2="19.0001" y2="35.7752" gradientUnits="userSpaceOnUse">
<stop stop-color="#287BE0"/>
<stop offset="1" stop-color="#043B7D"/>
</linearGradient>
</defs>
</svg>
