<svg width="24" height="24" viewBox="0 0 24 24" fill="none" xmlns="http://www.w3.org/2000/svg">
<path d="M17.5335 12.3043C17.5335 11.9534 17.249 11.6689 16.8981 11.6689C16.5473 11.6689 16.2628 11.9534 16.2628 12.3043C16.2624 14.7874 14.2492 16.8 11.7661 16.7997C9.28348 16.7993 7.27105 14.7869 7.27067 12.3043C7.27067 11.9534 6.98622 11.6689 6.63534 11.6689C6.28445 11.6689 6 11.9534 6 12.3043C6.00335 15.2418 8.21206 17.7085 11.1314 18.035V19.7292H8.82092C8.47004 19.7292 8.18558 20.0137 8.18558 20.3646C8.18558 20.7155 8.47004 20.9999 8.82092 20.9999H14.7126C15.0635 20.9999 15.3479 20.7155 15.3479 20.3646C15.3479 20.0137 15.0635 19.7292 14.7126 19.7292H12.4021V18.035C15.3214 17.7085 17.5301 15.2418 17.5335 12.3043Z" fill="#fff"/>
<path d="M11.7657 3C9.80897 3 8.22266 4.58627 8.22266 6.54308V12.2802C8.22497 14.236 9.80992 15.8209 11.7657 15.8233C13.7215 15.8209 15.3065 14.236 15.3088 12.2802V6.54308C15.3088 4.58627 13.7225 3 11.7657 3Z" fill="#fff"/>
</svg>
