<svg width="18" height="15" viewBox="0 0 18 15" fill="none" xmlns="http://www.w3.org/2000/svg">
<path fill-rule="evenodd" clip-rule="evenodd" d="M4.50004 12.2143H1.92857C0.863535 12.2143 0 11.3509 0 10.2857V1.92857C0 0.863535 0.863535 0 1.92857 0H16.0714C17.1366 0 18 0.863535 18 1.92857V10.2857C18 11.3509 17.1366 12.2143 16.0714 12.2143H13.5V12.7153C13.5 13.0939 13.3496 13.457 13.0818 13.7247C12.8141 13.9925 12.451 14.1429 12.0724 14.1429H5.92764C5.54902 14.1429 5.1859 13.9925 4.91817 13.7247C4.65045 13.457 4.50004 13.0939 4.50004 12.7153V12.2143ZM5.7857 12.2143V12.7153C5.7857 12.7936 5.84926 12.8572 5.92764 12.8572H12.0724C12.11 12.8572 12.1461 12.8423 12.1727 12.8156C12.1993 12.789 12.2143 12.7529 12.2143 12.7153V12.2143H5.7857ZM8.35717 5.40924L7.63635 6.13006C7.38548 6.38093 6.97801 6.38093 6.72715 6.13006C6.47628 5.8792 6.47628 5.47173 6.72715 5.22086L8.5454 3.40261C8.66599 3.28208 8.8295 3.21437 9 3.21437C9.1705 3.21437 9.33401 3.28208 9.4546 3.40261L11.2729 5.22086C11.5237 5.47173 11.5237 5.8792 11.2729 6.13006C11.022 6.38093 10.6147 6.38093 10.3638 6.13006L9.64283 5.40924V8.35717C9.64283 8.71203 9.35478 9.00008 9.00008 9.00008C8.82959 9 8.66611 8.93224 8.54556 8.81169C8.42501 8.69113 8.35725 8.52766 8.35717 8.35717V5.40924Z" fill="#BFBFBF"/>
</svg>
