<svg width="24" height="24" viewBox="0 0 24 24" fill="none" xmlns="http://www.w3.org/2000/svg">
<path d="M13.2588 6.3999H4.49909C3.34373 6.3999 2.39844 7.3452 2.39844 8.50056V15.5798C2.39844 16.7351 3.34373 17.6804 4.49909 17.6804H13.2588C14.4142 17.6804 15.3595 16.7351 15.3595 15.5798V8.50056C15.3595 7.32419 14.4142 6.3999 13.2588 6.3999ZM20.044 7.55526C19.9179 7.57627 19.7919 7.63929 19.6868 7.70231L16.4098 9.5929V14.4664L19.7078 16.357C20.317 16.7141 21.0733 16.5041 21.4304 15.8949C21.5354 15.7058 21.5984 15.4957 21.5984 15.2647V8.77364C21.5984 7.9964 20.8632 7.3662 20.044 7.55526Z" fill="#fff"/>
</svg>
