<svg width="16" height="16" viewBox="0 0 16 16" fill="none" xmlns="http://www.w3.org/2000/svg">
<path d="M9.64004 2.17307L10.2267 1.58641C10.92 0.893073 12.1267 0.893073 12.82 1.58641L13.2934 2.05974C13.4641 2.22906 13.5997 2.43053 13.6922 2.65251C13.7847 2.87449 13.8323 3.11259 13.8323 3.35307C13.8323 3.59356 13.7847 3.83166 13.6922 4.05364C13.5997 4.27562 13.4641 4.47708 13.2934 4.64641L12.7067 5.23307L9.64004 2.16641V2.17307ZM8.93337 2.87974L2.86004 8.95307C2.66671 9.14641 2.54671 9.39974 2.52671 9.67307L2.34671 11.6264C2.32671 11.8731 2.41337 12.1131 2.58671 12.2931C2.74671 12.4531 2.95337 12.5397 3.17337 12.5397H3.24671L5.20004 12.3597C5.47337 12.3331 5.72671 12.2131 5.92004 12.0197L11.9934 5.94641L8.92671 2.87974H8.93337ZM15.1667 14.6664C15.1667 14.3931 14.94 14.1664 14.6667 14.1664H1.33337C1.06004 14.1664 0.833374 14.3931 0.833374 14.6664C0.833374 14.9397 1.06004 15.1664 1.33337 15.1664H14.6667C14.94 15.1664 15.1667 14.9397 15.1667 14.6664Z" fill="white"/>
</svg>
