<svg width="54" height="54" viewBox="0 0 54 54" fill="none" xmlns="http://www.w3.org/2000/svg">
<path d="M43.875 4.425H41.0625V2.625C41.0625 2.12772 40.865 1.65081 40.5133 1.29917C40.1617 0.947544 39.6848 0.75 39.1875 0.75C38.6902 0.75 38.2133 0.947544 37.8617 1.29917C37.51 1.65081 37.3125 2.12772 37.3125 2.625V4.425H16.6875V2.625C16.6875 2.12772 16.49 1.65081 16.1383 1.29917C15.7867 0.947544 15.3098 0.75 14.8125 0.75C14.3152 0.75 13.8383 0.947544 13.4867 1.29917C13.135 1.65081 12.9375 2.12772 12.9375 2.625V4.425H10.125C4.95563 4.425 0.75 8.63063 0.75 13.8V43.875C0.75 49.0444 4.95563 53.25 10.125 53.25H43.875C49.0444 53.25 53.25 49.0444 53.25 43.875V13.8C53.25 8.63063 49.0444 4.425 43.875 4.425ZM4.5 13.8C4.5 10.6987 7.02375 8.175 10.125 8.175H12.9375V9.975C12.9375 10.4723 13.135 10.9492 13.4867 11.3008C13.8383 11.6525 14.3152 11.85 14.8125 11.85C15.3098 11.85 15.7867 11.6525 16.1383 11.3008C16.49 10.9492 16.6875 10.4723 16.6875 9.975V8.175H37.3125V9.975C37.3125 10.4723 37.51 10.9492 37.8617 11.3008C38.2133 11.6525 38.6902 11.85 39.1875 11.85C39.6848 11.85 40.1617 11.6525 40.5133 11.3008C40.865 10.9492 41.0625 10.4723 41.0625 9.975V8.175H43.875C46.9762 8.175 49.5 10.6987 49.5 13.8V15.6938H4.5V13.8ZM43.875 49.5H10.125C7.02375 49.5 4.5 46.9762 4.5 43.875V19.4438H49.5V43.875C49.5 46.9762 46.9762 49.5 43.875 49.5Z" fill="url(#paint0_linear_91_6820)"/>
<defs>
<linearGradient id="paint0_linear_91_6820" x1="27" y1="0.75" x2="27" y2="53.25" gradientUnits="userSpaceOnUse">
<stop stop-color="#287BE0"/>
<stop offset="1" stop-color="#043B7D"/>
</linearGradient>
</defs>
</svg>
