<svg width="42" height="42" viewBox="0 0 42 42" fill="none" xmlns="http://www.w3.org/2000/svg">
<path d="M9.87075 27.9161C13.7162 32.5128 18.3452 36.132 23.6286 38.6929C25.6401 39.6462 28.3303 40.7772 31.3275 40.9711C31.5133 40.9792 31.691 40.9872 31.8768 40.9872C33.8884 40.9872 35.5041 40.2925 36.8209 38.8626C36.829 38.8545 36.8451 38.8383 36.8532 38.8222C37.3218 38.2567 37.855 37.7477 38.4124 37.2065C38.7921 36.8429 39.1798 36.4632 39.5515 36.0755C41.2722 34.282 41.2722 32.0038 39.5353 30.267L34.6801 25.4117C33.8561 24.5554 32.8705 24.103 31.8364 24.103C30.8024 24.103 29.8087 24.5554 28.9604 25.4037L26.0683 28.2958C25.8017 28.1423 25.527 28.005 25.2685 27.8757C24.9454 27.7141 24.6465 27.5606 24.3799 27.391C21.7463 25.7187 19.355 23.5375 17.0688 20.7342C15.9135 19.272 15.138 18.0441 14.5967 16.7919C15.3561 16.1052 16.067 15.3862 16.7537 14.6834C16.9961 14.4329 17.2465 14.1825 17.4969 13.9321C18.3694 13.0596 18.838 12.0498 18.838 11.0238C18.838 9.9978 18.3775 8.98797 17.4969 8.11549L15.0895 5.70807C14.8068 5.42532 14.5402 5.15065 14.2655 4.8679C13.7323 4.31855 13.1749 3.75305 12.6255 3.2441C11.7935 2.42816 10.8159 2 9.78189 2C8.75591 2 7.77032 2.42816 6.90591 3.25218L3.88452 6.27357C2.78584 7.37226 2.16378 8.70522 2.03453 10.2482C1.88103 12.179 2.23649 14.231 3.15745 16.7111C4.5712 20.5484 6.70395 24.1111 9.87075 27.9161ZM4.0057 10.4179C4.10264 9.34343 4.51465 8.44671 5.2902 7.67116L8.29543 4.66593C8.76399 4.21353 9.28101 3.97925 9.78189 3.97925C10.2747 3.97925 10.7756 4.21353 11.236 4.68209C11.7773 5.18296 12.2862 5.70807 12.8356 6.26549C13.1103 6.54824 13.393 6.83099 13.6758 7.12182L16.0832 9.52924C16.5841 10.0301 16.8426 10.5391 16.8426 11.0399C16.8426 11.5408 16.5841 12.0498 16.0832 12.5506C15.8327 12.8011 15.5823 13.0596 15.3319 13.31C14.5806 14.0694 13.8777 14.7884 13.1022 15.4751L13.0618 15.5155C12.3913 16.186 12.4963 16.8242 12.6579 17.3089C12.6659 17.3331 12.674 17.3493 12.6821 17.3735C13.3041 18.8681 14.1686 20.2899 15.5177 21.9864C17.9413 24.9755 20.4941 27.294 23.3054 29.0794C23.6528 29.3056 24.0244 29.4833 24.3718 29.6611C24.6949 29.8226 24.9939 29.9761 25.2604 30.1458C25.2928 30.1619 25.317 30.1781 25.3493 30.1942C25.6159 30.3316 25.8744 30.3962 26.1329 30.3962C26.7792 30.3962 27.1993 29.9842 27.3366 29.8469L30.358 26.8255C30.8266 26.3569 31.3355 26.1065 31.8364 26.1065C32.4504 26.1065 32.9513 26.4862 33.2663 26.8255L38.1377 31.6888C39.1071 32.6582 39.0991 33.7084 38.1135 34.7344C37.7742 35.0979 37.4187 35.4453 37.039 35.8089C36.4735 36.3582 35.8838 36.9237 35.3506 37.5619C34.4216 38.5637 33.3148 39.0322 31.8849 39.0322C31.7475 39.0322 31.6021 39.0241 31.4648 39.0161C28.815 38.8464 26.3511 37.8124 24.5011 36.9318C19.4762 34.5001 15.0653 31.0506 11.4057 26.672C8.39237 23.0447 6.36465 19.6679 5.0236 16.0487C4.19151 13.827 3.87644 12.0417 4.0057 10.4179Z" fill="#BFBFBF"/>
</svg>
