<svg width="60" height="60" viewBox="0 0 60 60" fill="none" xmlns="http://www.w3.org/2000/svg">
<path d="M15 56.25C14.5029 56.2495 14.0262 56.0518 13.6747 55.7003C13.3232 55.3488 13.1255 54.8721 13.125 54.375V45H7.5C4.39875 45 1.875 42.4762 1.875 39.375V9.375C1.875 6.27375 4.39875 3.75 7.5 3.75H52.5C55.6012 3.75 58.125 6.27375 58.125 9.375V39.375C58.125 42.4762 55.6012 45 52.5 45H29.7206L16.1719 55.8394C15.8394 56.1056 15.426 56.2505 15 56.25ZM7.5 7.5C6.465 7.5 5.625 8.34188 5.625 9.375V39.375C5.625 40.4081 6.465 41.25 7.5 41.25H15C15.4973 41.25 15.9742 41.4475 16.3258 41.7992C16.6775 42.1508 16.875 42.6277 16.875 43.125V50.475L27.8906 41.6606C28.2233 41.3946 28.6366 41.2498 29.0625 41.25H52.5C53.535 41.25 54.375 40.4081 54.375 39.375V9.375C54.375 8.34188 53.535 7.5 52.5 7.5H7.5Z" fill="url(#paint0_linear_91_6799)"/>
<path d="M45 22.5H15C14.5027 22.5 14.0258 22.3025 13.6742 21.9508C13.3225 21.5992 13.125 21.1223 13.125 20.625C13.125 20.1277 13.3225 19.6508 13.6742 19.2992C14.0258 18.9475 14.5027 18.75 15 18.75H45C45.4973 18.75 45.9742 18.9475 46.3258 19.2992C46.6775 19.6508 46.875 20.1277 46.875 20.625C46.875 21.1223 46.6775 21.5992 46.3258 21.9508C45.9742 22.3025 45.4973 22.5 45 22.5ZM30 30H15C14.5027 30 14.0258 29.8025 13.6742 29.4508C13.3225 29.0992 13.125 28.6223 13.125 28.125C13.125 27.6277 13.3225 27.1508 13.6742 26.7992C14.0258 26.4475 14.5027 26.25 15 26.25H30C30.4973 26.25 30.9742 26.4475 31.3258 26.7992C31.6775 27.1508 31.875 27.6277 31.875 28.125C31.875 28.6223 31.6775 29.0992 31.3258 29.4508C30.9742 29.8025 30.4973 30 30 30Z" fill="url(#paint1_linear_91_6799)"/>
<defs>
<linearGradient id="paint0_linear_91_6799" x1="30" y1="3.75" x2="30" y2="56.25" gradientUnits="userSpaceOnUse">
<stop stop-color="#287BE0"/>
<stop offset="1" stop-color="#043B7D"/>
</linearGradient>
<linearGradient id="paint1_linear_91_6799" x1="30" y1="18.75" x2="30" y2="30" gradientUnits="userSpaceOnUse">
<stop stop-color="#287BE0"/>
<stop offset="1" stop-color="#043B7D"/>
</linearGradient>
</defs>
</svg>
