<svg width="20" height="20" viewBox="0 0 20 20" fill="none" xmlns="http://www.w3.org/2000/svg">
<path d="M13.0108 5.12451H3.10697C2.61447 5.12451 2.14214 5.32027 1.79389 5.66873C1.44564 6.01719 1.25 6.48981 1.25 6.9826V16.8924C1.25066 17.385 1.44651 17.8572 1.79462 18.2056C2.14272 18.5539 2.61467 18.7499 3.10697 18.7505H13.0108C13.5029 18.7492 13.9744 18.553 14.3224 18.2048C14.6704 17.8567 14.8664 17.3848 14.8677 16.8924V6.9826C14.8671 6.49001 14.6712 6.01778 14.3231 5.66946C13.975 5.32114 13.5031 5.12517 13.0108 5.12451ZM13.6298 16.8924C13.6298 17.0567 13.5646 17.2142 13.4485 17.3304C13.3324 17.4465 13.1749 17.5118 13.0108 17.5118H3.10697C2.9428 17.5118 2.78536 17.4465 2.66927 17.3304C2.55319 17.2142 2.48798 17.0567 2.48798 16.8924V6.9826C2.48798 6.81834 2.55319 6.6608 2.66927 6.54465C2.78536 6.42849 2.9428 6.36324 3.10697 6.36324H13.0108C13.1749 6.36324 13.3324 6.42849 13.4485 6.54465C13.5646 6.6608 13.6298 6.81834 13.6298 6.9826V16.8924Z" fill="white"/>
<path d="M16.8936 1.25H6.98978C6.49748 1.25066 6.02554 1.44663 5.67743 1.79495C5.32932 2.14326 5.13347 2.6155 5.13281 3.10809V5.7441C5.13281 5.90837 5.19803 6.06591 5.31411 6.18206C5.43019 6.29821 5.58764 6.36347 5.7518 6.36347C5.91597 6.36347 6.07341 6.29821 6.18949 6.18206C6.30557 6.06591 6.37079 5.90837 6.37079 5.7441V3.10809C6.37079 2.94383 6.436 2.78629 6.55209 2.67013C6.66817 2.55398 6.82561 2.48873 6.98978 2.48873H16.8936C17.0578 2.48873 17.2152 2.55398 17.3313 2.67013C17.4474 2.78629 17.5126 2.94383 17.5126 3.10809V13.0179C17.5126 13.1822 17.4474 13.3397 17.3313 13.4559C17.2152 13.572 17.0578 13.6373 16.8936 13.6373H14.2493C14.0851 13.6373 13.9277 13.7025 13.8116 13.8187C13.6955 13.9348 13.6303 14.0924 13.6303 14.2566C13.6303 14.4209 13.6955 14.5784 13.8116 14.6946C13.9277 14.8107 14.0851 14.876 14.2493 14.876H16.8936C17.3861 14.876 17.8584 14.6802 18.2067 14.3318C18.5549 13.9833 18.7506 13.5107 18.7506 13.0179V3.10809C18.7499 2.6155 18.5541 2.14326 18.2059 1.79495C17.8578 1.44663 17.3859 1.25066 16.8936 1.25Z" fill="white"/>
</svg>
