<svg width="20" height="16" viewBox="0 0 20 16" fill="none" xmlns="http://www.w3.org/2000/svg">
<path d="M18.125 3H1.875C1.54348 3 1.22554 2.8683 0.991117 2.63388C0.756696 2.39946 0.625 2.08152 0.625 1.75C0.625 1.41848 0.756696 1.10054 0.991117 0.866116C1.22554 0.631696 1.54348 0.5 1.875 0.5H18.125C18.4565 0.5 18.7745 0.631696 19.0089 0.866116C19.2433 1.10054 19.375 1.41848 19.375 1.75C19.375 2.08152 19.2433 2.39946 19.0089 2.63388C18.7745 2.8683 18.4565 3 18.125 3ZM18.125 15.5H1.875C1.54348 15.5 1.22554 15.3683 0.991117 15.1339C0.756696 14.8995 0.625 14.5815 0.625 14.25C0.625 13.9185 0.756696 13.6005 0.991117 13.3661C1.22554 13.1317 1.54348 13 1.875 13H18.125C18.4565 13 18.7745 13.1317 19.0089 13.3661C19.2433 13.6005 19.375 13.9185 19.375 14.25C19.375 14.5815 19.2433 14.8995 19.0089 15.1339C18.7745 15.3683 18.4565 15.5 18.125 15.5ZM18.125 9.25H1.875C1.54348 9.25 1.22554 9.1183 0.991117 8.88388C0.756696 8.64946 0.625 8.33152 0.625 8C0.625 7.66848 0.756696 7.35054 0.991117 7.11612C1.22554 6.8817 1.54348 6.75 1.875 6.75H18.125C18.4565 6.75 18.7745 6.8817 19.0089 7.11612C19.2433 7.35054 19.375 7.66848 19.375 8C19.375 8.33152 19.2433 8.64946 19.0089 8.88388C18.7745 9.1183 18.4565 9.25 18.125 9.25Z" fill="white"/>
</svg>
