<svg width="20" height="20" viewBox="0 0 20 20" fill="none" xmlns="http://www.w3.org/2000/svg">
<path d="M16.438 14.25V4.84375C16.438 3.96875 15.6568 3.21875 14.6567 3.21875C14.4067 3.21875 14.188 3.25 14.0005 3.34375V2.75C14.0005 1.875 13.2192 1.125 12.2192 1.125C11.813 1.125 11.4692 1.25 11.188 1.4375C10.8755 1.0625 10.3442 0.8125 9.78175 0.8125C8.96925 0.8125 8.313 1.3125 8.09425 1.96875C7.8755 1.875 7.6255 1.8125 7.34425 1.8125C6.3755 1.8125 5.563 2.53125 5.563 3.4375V10.5L4.90675 9.6875C4.2505 8.8125 3.0005 8.53125 2.063 9.03125C1.59425 9.28125 1.28175 9.71875 1.15675 10.2188C1.03175 10.75 1.15675 11.2813 1.5005 11.7188C2.063 12.4688 2.65675 13.25 3.21925 14L4.2505 15.375C4.40675 15.5625 4.53175 15.7812 4.688 15.9688C5.1255 16.5938 5.59425 17.2188 6.21925 17.75C7.40675 18.75 9.03175 19.125 10.563 19.125C11.313 19.125 12.0317 19.0312 12.688 18.9062C16.438 18.125 16.438 15.3125 16.438 14.25ZM12.4692 17.875C10.8443 18.2188 8.40675 18.1875 6.938 16.9688C6.438 16.5312 6.03175 15.9688 5.59425 15.375C5.438 15.1563 5.28175 14.9375 5.1255 14.75L4.09425 13.375C3.53175 12.625 2.938 11.8438 2.3755 11.0938C2.21925 10.9062 2.188 10.6875 2.21925 10.4688C2.2505 10.2812 2.3755 10.125 2.563 10C3.03175 9.75 3.688 9.90625 4.0005 10.3437C4.0005 10.3437 4.0005 10.375 4.03175 10.375L5.688 12.3438C5.84425 12.5313 6.063 12.5938 6.28175 12.5C6.5005 12.4062 6.65675 12.2188 6.65675 12V3.46875C6.65675 3.1875 6.96925 2.9375 7.34425 2.9375C7.688 2.9375 8.0005 3.15625 8.0005 3.4375V8.875C8.0005 9.1875 8.2505 9.4375 8.563 9.4375C8.8755 9.4375 9.1255 9.1875 9.1255 8.875V2.46875C9.1255 2.1875 9.438 1.9375 9.813 1.9375C10.188 1.9375 10.5005 2.1875 10.5005 2.46875V9.125C10.5005 9.4375 10.7505 9.6875 11.063 9.6875C11.3755 9.6875 11.6255 9.4375 11.6255 9.125V2.75C11.6255 2.46875 11.938 2.21875 12.313 2.21875C12.688 2.21875 13.0005 2.46875 13.0005 2.75V9.6875C13.0005 10 13.2505 10.25 13.563 10.25C13.8755 10.25 14.1255 10 14.1255 9.6875V4.8125C14.1567 4.53125 14.438 4.3125 14.7817 4.3125C15.1567 4.3125 15.4692 4.5625 15.4692 4.84375V14.2813C15.3442 15.3125 15.3442 17.25 12.4692 17.875Z" fill="white"/>
</svg>
