<svg width="20" height="20" viewBox="0 0 20 20" fill="none" xmlns="http://www.w3.org/2000/svg">
<path fill-rule="evenodd" clip-rule="evenodd" d="M17.5958 5.0928C17.7857 5.00833 17.9938 4.97266 18.201 4.98905C18.4082 5.00544 18.608 5.07336 18.7823 5.18664C18.9566 5.29989 19.0999 5.45491 19.1991 5.63761C19.2982 5.8203 19.3502 6.02488 19.3502 6.23276V13.7478C19.3502 13.9556 19.2982 14.1602 19.199 14.3429C19.0999 14.5256 18.9566 14.6806 18.7823 14.7939C18.608 14.9072 18.4082 14.9751 18.201 14.9915C17.9938 15.0078 17.7857 14.9722 17.5958 14.8877C17.5587 14.8712 17.5233 14.8512 17.4901 14.8278L14.2656 12.5581C14.102 12.4429 13.9686 12.2902 13.8764 12.1127C13.7843 11.9352 13.7362 11.7381 13.7361 11.5381V8.44239C13.7361 8.24239 13.7843 8.04533 13.8764 7.86782C13.9685 7.69032 14.102 7.53757 14.2656 7.42247L17.4901 5.15268C17.5233 5.12933 17.5587 5.10928 17.5958 5.0928ZM18.1026 6.24722V13.7333L14.9837 11.5379V8.44262L18.1026 6.24722ZM2.44381 5.08473C2.66767 5.3466 2.63684 5.74036 2.37496 5.96422C2.22131 6.09559 2.0979 6.25864 2.0132 6.4422C1.92851 6.62575 1.88453 6.82546 1.88428 7.02761V12.9523C1.88557 13.3244 2.03396 13.6809 2.29708 13.944C2.5602 14.2071 2.9167 14.3555 3.2888 14.3567H10.4619C10.6665 14.3569 10.8685 14.3119 11.0537 14.2249C11.3655 14.0784 11.737 14.2124 11.8835 14.5242C12.0301 14.836 11.8961 15.2075 11.5843 15.354C11.2327 15.5192 10.849 15.6047 10.4606 15.6043H3.286C2.58399 15.6023 1.9113 15.3225 1.4149 14.8261C0.918502 14.3297 0.638735 13.657 0.636719 12.955V7.02668C0.637097 6.64443 0.7202 6.2668 0.880319 5.91971C1.04044 5.57262 1.27378 5.2643 1.56432 5.01592C1.82619 4.79206 2.21995 4.82289 2.44381 5.08473ZM7.49832 5.00001C7.49832 4.65549 7.77758 4.37623 8.1221 4.37623H10.4819C11.1789 4.37836 11.8467 4.65617 12.3395 5.14901C12.8324 5.64184 13.1102 6.30966 13.1124 7.00664V9.67837C13.1124 10.0229 12.8331 10.3022 12.4886 10.3022C12.144 10.3022 11.8648 10.0229 11.8648 9.67837V7.00964C11.8634 6.64251 11.717 6.29081 11.4574 6.03121C11.1978 5.7716 10.8461 5.62516 10.4789 5.62379H8.1221C7.77758 5.62379 7.49832 5.34449 7.49832 5.00001ZM2.69075 2.68757C2.93438 2.44399 3.32935 2.44399 3.57294 2.68757L16.6724 15.787C16.9159 16.0306 16.9159 16.4255 16.6724 16.6692C16.4287 16.9128 16.0338 16.9128 15.7902 16.6692L2.69075 3.56976C2.44717 3.32613 2.44717 2.93116 2.69075 2.68757Z" fill="white"/>
</svg>
