<svg width="16" height="18" viewBox="0 0 16 18" fill="none" xmlns="http://www.w3.org/2000/svg">
<path d="M12.3443 12.0699C12.4298 12.1089 12.5228 12.1291 12.6168 12.1289C12.744 12.1284 12.8684 12.0914 12.9751 12.0221C13.0818 11.9529 13.1664 11.8544 13.2187 11.7385C13.5686 10.9681 13.7495 10.1318 13.749 9.28571C13.749 9.1099 13.6792 8.94129 13.5548 8.81697C13.4305 8.69265 13.2619 8.62281 13.0861 8.62281C12.9103 8.62281 12.7417 8.69265 12.6174 8.81697C12.493 8.94129 12.4232 9.1099 12.4232 9.28571C12.4247 9.94429 12.285 10.5955 12.0135 11.1955C11.942 11.3554 11.9366 11.5371 11.9986 11.701C12.0605 11.8648 12.1848 11.9974 12.3443 12.0699ZM5.13126 4.64539C5.30707 4.64539 5.47569 4.57555 5.6 4.45123C5.72432 4.32691 5.79416 4.1583 5.79416 3.98249C5.79416 3.45505 6.00369 2.94921 6.37664 2.57626C6.7496 2.2033 7.25544 1.99378 7.78288 1.99378C8.31031 1.99378 8.81615 2.2033 9.18911 2.57626C9.56206 2.94921 9.77159 3.45505 9.77159 3.98249V9.28571C9.77159 9.46153 9.84143 9.63014 9.96574 9.75446C10.0901 9.87877 10.2587 9.94862 10.4345 9.94862C10.6103 9.94862 10.7789 9.87877 10.9032 9.75446C11.0276 9.63014 11.0974 9.46153 11.0974 9.28571V3.98249C11.0974 3.10342 10.7482 2.26036 10.1266 1.63877C9.505 1.01718 8.66194 0.667969 7.78288 0.667969C6.90381 0.667969 6.06075 1.01718 5.43916 1.63877C4.81756 2.26036 4.46836 3.10342 4.46836 3.98249C4.46836 4.1583 4.5382 4.32691 4.66252 4.45123C4.78684 4.57555 4.95545 4.64539 5.13126 4.64539ZM14.8806 15.4461L12.0023 12.5677L5.60192 6.16741L1.6245 2.18999C1.49974 2.06895 1.33242 2.00176 1.15859 2.00289C0.984764 2.00402 0.818334 2.07338 0.695156 2.19604C0.571977 2.3187 0.501906 2.48483 0.500038 2.65865C0.49817 2.83247 0.564654 3.00008 0.685169 3.12535L4.46836 6.90854V9.28571C4.46838 9.88451 4.63062 10.4721 4.93784 10.9861C5.24506 11.5001 5.68578 11.9212 6.21317 12.2048C6.74056 12.4884 7.33493 12.6238 7.93311 12.5967C8.5313 12.5695 9.11096 12.3809 9.6105 12.0507L10.5585 12.9986C9.86956 13.5156 9.05025 13.8303 8.19244 13.9075C7.33463 13.9848 6.47228 13.8214 5.70214 13.4358C4.93199 13.0502 4.28454 12.4577 3.83242 11.7246C3.3803 10.9915 3.14141 10.147 3.14255 9.28571C3.14255 9.1099 3.07271 8.94129 2.94839 8.81697C2.82407 8.69265 2.65546 8.62281 2.47965 8.62281C2.30384 8.62281 2.13522 8.69265 2.0109 8.81697C1.88659 8.94129 1.81674 9.1099 1.81674 9.28571C1.81873 10.7525 2.36036 12.1672 3.33839 13.2603C4.31642 14.3533 5.66247 15.0483 7.11997 15.2127V16.5777H5.13126C4.95545 16.5777 4.78684 16.6475 4.66252 16.7718C4.5382 16.8961 4.46836 17.0647 4.46836 17.2406C4.46836 17.4164 4.5382 17.585 4.66252 17.7093C4.78684 17.8336 4.95545 17.9035 5.13126 17.9035H10.4345C10.6103 17.9035 10.7789 17.8336 10.9032 17.7093C11.0276 17.585 11.0974 17.4164 11.0974 17.2406C11.0974 17.0647 11.0276 16.8961 10.9032 16.7718C10.7789 16.6475 10.6103 16.5777 10.4345 16.5777H8.44578V15.2127C9.56514 15.0897 10.6261 14.6495 11.5038 13.9439L13.9432 16.3834C14.0683 16.5042 14.2357 16.571 14.4095 16.5695C14.5833 16.568 14.7496 16.4983 14.8725 16.3753C14.9954 16.2524 15.0651 16.0862 15.0666 15.9124C15.0682 15.7385 15.0013 15.5711 14.8806 15.4461ZM7.78288 11.2744C7.25544 11.2744 6.7496 11.0649 6.37664 10.6919C6.00369 10.319 5.79416 9.81315 5.79416 9.28571V8.23435L8.63537 11.0756C8.36968 11.2048 8.07835 11.2728 7.78288 11.2744Z" fill="white"/>
</svg>
