<svg width="18" height="14" viewBox="0 0 18 14" fill="none" xmlns="http://www.w3.org/2000/svg">
<path d="M17.2505 2.17385C17.0385 2.07067 16.8015 2.03006 16.5673 2.05678C16.3331 2.08349 16.1113 2.17643 15.928 2.32469L13.7922 4.03302V3.66719C13.8411 3.24497 13.794 2.81715 13.6542 2.41574C13.5145 2.01432 13.2858 1.6497 12.9852 1.34915C12.6847 1.0486 12.32 0.819901 11.9186 0.680159C11.5172 0.540416 11.0894 0.493249 10.6672 0.542185H3.16719C2.74497 0.493249 2.31715 0.540416 1.91574 0.680159C1.51432 0.819901 1.1497 1.0486 0.849153 1.34915C0.548602 1.6497 0.319901 2.01432 0.180159 2.41574C0.0404158 2.81715 -0.00675141 3.24497 0.0421853 3.66719V10.3339C-0.00675141 10.7561 0.0404158 11.1839 0.180159 11.5853C0.319901 11.9867 0.548602 12.3513 0.849153 12.6519C1.1497 12.9524 1.51432 13.1811 1.91574 13.3209C2.31715 13.4606 2.74497 13.5078 3.16719 13.4589H10.6672C11.0894 13.5078 11.5172 13.4606 11.9186 13.3209C12.32 13.1811 12.6847 12.9524 12.9852 12.6519C13.2858 12.3513 13.5145 11.9867 13.6542 11.5853C13.794 11.1839 13.8411 10.7561 13.7922 10.3339V9.96802L15.928 11.6764C16.1484 11.8543 16.4231 11.9514 16.7064 11.9514C16.8947 11.9511 17.0807 11.9087 17.2505 11.8272C17.4634 11.7258 17.643 11.566 17.7685 11.3663C17.8939 11.1667 17.9599 10.9355 17.9589 10.6997V3.30135C17.9599 3.06557 17.8939 2.83436 17.7685 2.63471C17.643 2.43506 17.4634 2.27521 17.2505 2.17385ZM12.5422 10.3339C12.5422 11.648 11.9814 12.2089 10.6672 12.2089H3.16719C1.85302 12.2089 1.29219 11.648 1.29219 10.3339V3.66719C1.29219 2.35302 1.85302 1.79219 3.16719 1.79219H10.6672C11.9814 1.79219 12.5422 2.35302 12.5422 3.66719V10.3339ZM16.7089 10.7005L13.7922 8.36719V5.63385L16.7089 3.30052V10.7005Z" fill="white"/>
</svg>
