<svg width="20" height="20" viewBox="0 0 20 20" fill="none" xmlns="http://www.w3.org/2000/svg">
<path fill-rule="evenodd" clip-rule="evenodd" d="M2.49935 3.9585C2.4441 3.9585 2.39111 3.98045 2.35204 4.01952C2.31297 4.05859 2.29102 4.11158 2.29102 4.16683V15.8335C2.29102 15.9485 2.38435 16.0418 2.49935 16.0418H6.66602C6.83178 16.0418 6.99075 16.1077 7.10796 16.2249C7.22517 16.3421 7.29102 16.5011 7.29102 16.6668C7.29102 16.8326 7.22517 16.9916 7.10796 17.1088C6.99075 17.226 6.83178 17.2918 6.66602 17.2918H2.49935C2.11257 17.2918 1.74164 17.1382 1.46815 16.8647C1.19466 16.5912 1.04102 16.2203 1.04102 15.8335V4.16683C1.04102 3.361 1.69352 2.7085 2.49935 2.7085H17.4993C18.3052 2.7085 18.9577 3.36183 18.9577 4.16683V6.66683C18.9577 6.83259 18.8918 6.99156 18.7746 7.10877C18.6574 7.22598 18.4984 7.29183 18.3327 7.29183C18.1669 7.29183 18.008 7.22598 17.8907 7.10877C17.7735 6.99156 17.7077 6.83259 17.7077 6.66683V4.16683C17.7077 4.11158 17.6857 4.05859 17.6467 4.01952C17.6076 3.98045 17.5546 3.9585 17.4993 3.9585H2.49935Z" fill="white"/>
<path fill-rule="evenodd" clip-rule="evenodd" d="M10.8333 10.625C10.7781 10.625 10.7251 10.6469 10.686 10.686C10.6469 10.7251 10.625 10.7781 10.625 10.8333V15.8333C10.625 15.9483 10.7183 16.0417 10.8333 16.0417H17.5C17.5553 16.0417 17.6082 16.0197 17.6473 15.9806C17.6864 15.9416 17.7083 15.8886 17.7083 15.8333V10.8333C17.7083 10.7781 17.6864 10.7251 17.6473 10.686C17.6082 10.6469 17.5553 10.625 17.5 10.625H10.8333ZM9.375 10.8333C9.375 10.0275 10.0275 9.375 10.8333 9.375H17.5C18.3058 9.375 18.9583 10.0275 18.9583 10.8333V15.8333C18.9583 16.2201 18.8047 16.591 18.5312 16.8645C18.2577 17.138 17.8868 17.2917 17.5 17.2917H10.8333C10.4466 17.2917 10.0756 17.138 9.80214 16.8645C9.52865 16.591 9.375 16.2201 9.375 15.8333V10.8333Z" fill="white"/>
</svg>
