<svg width="20" height="20" viewBox="0 0 20 20" fill="none" xmlns="http://www.w3.org/2000/svg">
<path d="M9.16741 7.49755C9.22375 7.44121 9.29065 7.39651 9.36426 7.36601C9.43788 7.33552 9.51679 7.31982 9.59647 7.31982C9.67616 7.31982 9.75506 7.33552 9.82868 7.36601C9.9023 7.39651 9.9692 7.44121 10.0255 7.49755L12.5157 9.98747C12.6295 10.1013 12.6934 10.2557 12.6934 10.4166C12.6934 10.5776 12.6294 10.7319 12.5156 10.8457C12.4017 10.9595 12.2474 11.0234 12.0864 11.0234C11.9255 11.0234 11.7711 10.9594 11.6573 10.8456L10.2034 9.39165V13.1827C10.2034 13.3436 10.1394 13.4979 10.0257 13.6117C9.91186 13.7255 9.75752 13.7894 9.59659 13.7894C9.43566 13.7894 9.28132 13.7255 9.16753 13.6117C9.05374 13.4979 8.98981 13.3436 8.98981 13.1827V9.39165L7.53586 10.8456C7.42206 10.9594 7.26772 11.0233 7.10679 11.0233C6.94586 11.0233 6.79152 10.9594 6.67773 10.8456C6.56393 10.7318 6.5 10.5775 6.5 10.4165C6.5 10.2556 6.56393 10.1013 6.67773 9.98747L9.16741 7.49755Z" fill="white"/>
<path fill-rule="evenodd" clip-rule="evenodd" d="M1 6.47381C1 5.10738 2.10761 4 3.47381 4H15.7262C17.0924 4 18.2 5.10738 18.2 6.47381V14.3629C18.2 15.7291 17.0924 16.8368 15.7262 16.8368H3.47381C2.10761 16.8368 1 15.7291 1 14.3629V6.47381ZM3.47381 5.21357C3.13958 5.21357 2.81903 5.34634 2.58269 5.58269C2.34634 5.81903 2.21357 6.13958 2.21357 6.47381V14.3629C2.21357 14.5284 2.24617 14.6923 2.3095 14.8452C2.37283 14.9981 2.46566 15.137 2.58269 15.2541C2.69971 15.3711 2.83864 15.4639 2.99154 15.5273C3.14444 15.5906 3.30832 15.6232 3.47381 15.6232H15.7262C15.8917 15.6232 16.0556 15.5906 16.2085 15.5273C16.3614 15.4639 16.5003 15.3711 16.6173 15.2541C16.7343 15.137 16.8272 14.9981 16.8905 14.8452C16.9538 14.6923 16.9864 14.5284 16.9864 14.3629V6.47358C16.9864 6.13934 16.8537 5.81879 16.6173 5.58245C16.381 5.34611 16.0604 5.21334 15.7262 5.21334L3.47381 5.21357Z" fill="white"/>
</svg>
