<svg width="40" height="29" viewBox="0 0 40 29" fill="none" xmlns="http://www.w3.org/2000/svg">
<path d="M36.4844 0H3.51562C1.5732 0 0 1.58297 0 3.51562V24.6094C0 26.5535 1.58477 28.125 3.51562 28.125H36.4844C38.4105 28.125 40 26.5602 40 24.6094V3.51562C40 1.58641 38.433 0 36.4844 0ZM35.992 2.34375L22.4859 15.7787C21.8219 16.4427 20.9391 16.8084 20 16.8084C19.0609 16.8084 18.1781 16.4427 17.5119 15.7765L4.00797 2.34375H35.992ZM2.34375 24.1323V3.99414L12.4717 14.0687L2.34375 24.1323ZM4.00945 25.7812L14.1334 15.7216L15.8568 17.4359C16.9635 18.5427 18.4349 19.1521 20 19.1521C21.5651 19.1521 23.0365 18.5427 24.141 17.4381L25.8666 15.7216L35.9905 25.7812H4.00945ZM37.6562 24.1323L27.5283 14.0687L37.6562 3.99414V24.1323Z" fill="#BFBFBF"/>
</svg>
