<svg xmlns="http://www.w3.org/2000/svg" version="1.1" xmlns:xlink="http://www.w3.org/1999/xlink" width="512" height="512" x="0" y="0" viewBox="0 0 24 24" style="enable-background:new 0 0 512 512" xml:space="preserve" class=""><g><path d="M20.145 16.75a2.21 2.21 0 0 1-.527-.065l-2.727-.7a2.636 2.636 0 0 1-1.929-3.078l.117-.578a10.68 10.68 0 0 0-6.13 0l.115.59a2.638 2.638 0 0 1-1.941 3.063l-2.741.693a2.145 2.145 0 0 1-2.293-.875 5.308 5.308 0 0 1-.684-4.171 4.983 4.983 0 0 1 2.326-3.21 16.786 16.786 0 0 1 16.53.013 5.015 5.015 0 0 1 2.339 3.232 5.262 5.262 0 0 1-.673 4.132 2.127 2.127 0 0 1-1.782.954zm-8.128-6.372a12.087 12.087 0 0 1 4.189.747.751.751 0 0 1 .476.853l-.249 1.227a1.137 1.137 0 0 0 .831 1.327l2.723.7a.622.622 0 0 0 .682-.257 3.76 3.76 0 0 0 .469-2.962 3.516 3.516 0 0 0-1.616-2.273 15.286 15.286 0 0 0-15.054-.014 3.481 3.481 0 0 0-1.6 2.251 3.849 3.849 0 0 0 .47 2.987.633.633 0 0 0 .683.254l2.739-.694a1.136 1.136 0 0 0 .836-1.32l-.246-1.238a.75.75 0 0 1 .479-.849 12.269 12.269 0 0 1 4.188-.739z" fill="#fff" opacity="1" data-original="#000000"></path></g></svg>