<svg width="20" height="20" viewBox="0 0 20 20" fill="none" xmlns="http://www.w3.org/2000/svg">
<path d="M14.1641 1.66797H5.83073C3.53073 1.66797 1.66406 3.53464 1.66406 5.83464V14.168C1.66406 16.468 3.53073 18.3346 5.83073 18.3346H14.1641C16.4641 18.3346 18.3307 16.468 18.3307 14.168V5.83464C18.3307 3.53464 16.4641 1.66797 14.1641 1.66797ZM9.9974 14.168C7.6974 14.168 5.83073 12.3013 5.83073 10.0013C5.83073 7.7013 7.6974 5.83464 9.9974 5.83464C12.2974 5.83464 14.1641 7.7013 14.1641 10.0013C14.1641 12.3013 12.2974 14.168 9.9974 14.168ZM14.4557 6.3513C13.9974 6.3513 13.6224 5.9763 13.6224 5.51797C13.6224 5.05964 13.9974 4.68464 14.4557 4.68464C14.9141 4.68464 15.2891 5.05964 15.2891 5.51797C15.2891 5.9763 14.9141 6.3513 14.4557 6.3513Z" fill="url(#paint0_linear_91_6980)"/>
<path d="M10 12.5C11.3807 12.5 12.5 11.3807 12.5 10C12.5 8.61929 11.3807 7.5 10 7.5C8.61929 7.5 7.5 8.61929 7.5 10C7.5 11.3807 8.61929 12.5 10 12.5Z" fill="url(#paint1_linear_91_6980)"/>
<defs>
<linearGradient id="paint0_linear_91_6980" x1="9.9974" y1="1.66797" x2="9.9974" y2="18.3346" gradientUnits="userSpaceOnUse">
<stop stop-color="#287BE0"/>
<stop offset="1" stop-color="#043B7D"/>
</linearGradient>
<linearGradient id="paint1_linear_91_6980" x1="10" y1="7.5" x2="10" y2="12.5" gradientUnits="userSpaceOnUse">
<stop stop-color="#287BE0"/>
<stop offset="1" stop-color="#043B7D"/>
</linearGradient>
</defs>
</svg>
