<svg width="20" height="20" viewBox="0 0 20 20" fill="none" xmlns="http://www.w3.org/2000/svg">
<path fill-rule="evenodd" clip-rule="evenodd" d="M10 2.50016C9.33696 2.50016 8.70107 2.76356 8.23223 3.2324C7.76339 3.70124 7.5 4.33712 7.5 5.00016C7.5 5.6632 7.76339 6.29909 8.23223 6.76793C8.70107 7.23677 9.33696 7.50016 10 7.50016C10.663 7.50016 11.2989 7.23677 11.7678 6.76793C12.2366 6.29909 12.5 5.6632 12.5 5.00016C12.5 4.33712 12.2366 3.70124 11.7678 3.2324C11.2989 2.76356 10.663 2.50016 10 2.50016ZM5.83333 5.00016C5.83333 3.89509 6.27232 2.83529 7.05372 2.05388C7.83512 1.27248 8.89493 0.833496 10 0.833496C11.1051 0.833496 12.1649 1.27248 12.9463 2.05388C13.7277 2.83529 14.1667 3.89509 14.1667 5.00016C14.1667 6.10523 13.7277 7.16504 12.9463 7.94644C12.1649 8.72784 11.1051 9.16683 10 9.16683C8.89493 9.16683 7.83512 8.72784 7.05372 7.94644C6.27232 7.16504 5.83333 6.10523 5.83333 5.00016ZM2.5 16.6668C2.5 15.1197 3.11458 13.636 4.20854 12.542C5.30251 11.4481 6.78624 10.8335 8.33333 10.8335H11.6667C11.8877 10.8335 12.0996 10.9213 12.2559 11.0776C12.4122 11.2339 12.5 11.4458 12.5 11.6668C12.5 11.8878 12.4122 12.0998 12.2559 12.2561C12.0996 12.4124 11.8877 12.5002 11.6667 12.5002H8.33333C7.22826 12.5002 6.16846 12.9391 5.38706 13.7206C4.60565 14.502 4.16667 15.5618 4.16667 16.6668C4.16667 16.8878 4.25446 17.0998 4.41074 17.2561C4.56702 17.4124 4.77899 17.5002 5 17.5002H10C10.221 17.5002 10.433 17.588 10.5893 17.7442C10.7455 17.9005 10.8333 18.1125 10.8333 18.3335C10.8333 18.5545 10.7455 18.7665 10.5893 18.9228C10.433 19.079 10.221 19.1668 10 19.1668H5C4.33696 19.1668 3.70107 18.9034 3.23223 18.4346C2.76339 17.9658 2.5 17.3299 2.5 16.6668ZM15.8333 12.5002C16.0543 12.5002 16.2663 12.588 16.4226 12.7442C16.5789 12.9005 16.6667 13.1125 16.6667 13.3335V15.0002H18.3333C18.5543 15.0002 18.7663 15.088 18.9226 15.2442C19.0789 15.4005 19.1667 15.6125 19.1667 15.8335C19.1667 16.0545 19.0789 16.2665 18.9226 16.4228C18.7663 16.579 18.5543 16.6668 18.3333 16.6668H16.6667V18.3335C16.6667 18.5545 16.5789 18.7665 16.4226 18.9228C16.2663 19.079 16.0543 19.1668 15.8333 19.1668C15.6123 19.1668 15.4004 19.079 15.2441 18.9228C15.0878 18.7665 15 18.5545 15 18.3335V16.6668H13.3333C13.1123 16.6668 12.9004 16.579 12.7441 16.4228C12.5878 16.2665 12.5 16.0545 12.5 15.8335C12.5 15.6125 12.5878 15.4005 12.7441 15.2442C12.9004 15.088 13.1123 15.0002 13.3333 15.0002H15V13.3335C15 13.1125 15.0878 12.9005 15.2441 12.7442C15.4004 12.588 15.6123 12.5002 15.8333 12.5002Z" fill="black"/>
</svg>
