<svg width="22" height="22" viewBox="0 0 22 22" fill="none" xmlns="http://www.w3.org/2000/svg">
<path d="M20.1641 9.97517C19.9209 9.97517 19.6878 9.87859 19.5159 9.70668C19.344 9.53477 19.2474 9.30162 19.2474 9.0585C19.2474 6.48725 18.2464 4.07092 16.4286 2.25225C16.2568 2.08037 16.1602 1.84725 16.1602 1.60417C16.1602 1.36109 16.2568 1.12797 16.4286 0.956083C16.6005 0.784201 16.8336 0.687638 17.0767 0.687638C17.3198 0.687638 17.5529 0.784201 17.7248 0.956083C18.7922 2.01764 19.6383 3.28035 20.2144 4.67113C20.7904 6.06192 21.0849 7.55315 21.0807 9.0585C21.0807 9.30162 20.9842 9.53477 20.8122 9.70668C20.6403 9.87859 20.4072 9.97517 20.1641 9.97517ZM1.83073 9.97517C1.58761 9.97517 1.35446 9.87859 1.18255 9.70668C1.01064 9.53477 0.914063 9.30162 0.914062 9.0585C0.914062 5.99775 2.10573 3.12033 4.26998 0.956083C4.44186 0.784201 4.67498 0.687638 4.91806 0.687638C5.16114 0.687638 5.39426 0.784201 5.56615 0.956083C5.73803 1.12797 5.83459 1.36109 5.83459 1.60417C5.83459 1.84725 5.73803 2.08037 5.56615 2.25225C4.66963 3.14403 3.95889 4.20475 3.47505 5.37305C2.99121 6.54134 2.74389 7.79399 2.7474 9.0585C2.7474 9.30162 2.65082 9.53477 2.47891 9.70668C2.307 9.87859 2.07384 9.97517 1.83073 9.97517ZM19.5948 15.5036C18.911 14.9267 18.3615 14.2073 17.9848 13.3958C17.6081 12.5843 17.4133 11.7003 17.4141 10.8057V8.25C17.4141 5.02425 15.0179 2.354 11.9141 1.90667V0.916667C11.9141 0.673552 11.8175 0.440394 11.6456 0.268485C11.4737 0.0965771 11.2405 0 10.9974 0C10.7543 0 10.5211 0.0965771 10.3492 0.268485C10.1773 0.440394 10.0807 0.673552 10.0807 0.916667V1.90667C6.97598 2.354 4.58073 5.02425 4.58073 8.25V10.8057C4.58108 11.7021 4.38532 12.5878 4.00718 13.4007C3.62904 14.2135 3.07767 14.9337 2.39173 15.5109C2.14383 15.7246 1.96713 16.009 1.88531 16.3259C1.80349 16.6428 1.82045 16.9771 1.93392 17.2841C2.04739 17.5911 2.25194 17.8561 2.5202 18.0436C2.78845 18.2311 3.1076 18.3322 3.4349 18.3333H18.5599C19.4445 18.3333 20.1641 17.6138 20.1641 16.7292C20.1641 16.2598 19.9596 15.8162 19.5948 15.5036ZM10.9974 22C11.7894 21.9989 12.5568 21.7248 13.1703 21.2239C13.7838 20.7229 14.2058 20.0258 14.3652 19.25H7.62956C7.78898 20.0258 8.21099 20.7229 8.82447 21.2239C9.43795 21.7248 10.2054 21.9989 10.9974 22Z" fill="white"/>
</svg>
