<svg width="12" height="14" viewBox="0 0 12 14" fill="none" xmlns="http://www.w3.org/2000/svg">
<path d="M10.0833 4.08301C9.92862 4.08301 9.78025 4.14447 9.67085 4.25386C9.56146 4.36326 9.5 4.51163 9.5 4.66634V11.1944C9.48327 11.4894 9.35065 11.7658 9.13104 11.9635C8.91143 12.1611 8.62261 12.264 8.3275 12.2497H3.6725C3.37739 12.264 3.08857 12.1611 2.86896 11.9635C2.64935 11.7658 2.51673 11.4894 2.5 11.1944V4.66634C2.5 4.51163 2.43854 4.36326 2.32915 4.25386C2.21975 4.14447 2.07138 4.08301 1.91667 4.08301C1.76196 4.08301 1.61358 4.14447 1.50419 4.25386C1.39479 4.36326 1.33333 4.51163 1.33333 4.66634V11.1944C1.34998 11.7989 1.60551 12.3721 2.04394 12.7886C2.48237 13.205 3.06798 13.4308 3.6725 13.4163H8.3275C8.93202 13.4308 9.51763 13.205 9.95606 12.7886C10.3945 12.3721 10.65 11.7989 10.6667 11.1944V4.66634C10.6667 4.51163 10.6052 4.36326 10.4958 4.25386C10.3864 4.14447 10.238 4.08301 10.0833 4.08301ZM10.6667 2.33301H8.33333V1.16634C8.33333 1.01163 8.27187 0.863258 8.16248 0.753862C8.05308 0.644466 7.90471 0.583008 7.75 0.583008H4.25C4.09529 0.583008 3.94692 0.644466 3.83752 0.753862C3.72812 0.863258 3.66667 1.01163 3.66667 1.16634V2.33301H1.33333C1.17862 2.33301 1.03025 2.39447 0.920854 2.50386C0.811458 2.61326 0.75 2.76163 0.75 2.91634C0.75 3.07105 0.811458 3.21942 0.920854 3.32882C1.03025 3.43822 1.17862 3.49967 1.33333 3.49967H10.6667C10.8214 3.49967 10.9697 3.43822 11.0791 3.32882C11.1885 3.21942 11.25 3.07105 11.25 2.91634C11.25 2.76163 11.1885 2.61326 11.0791 2.50386C10.9697 2.39447 10.8214 2.33301 10.6667 2.33301ZM4.83333 2.33301V1.74967H7.16667V2.33301H4.83333Z" fill="white"/>
<path d="M5.41667 9.91667V5.83333C5.41667 5.67862 5.35521 5.53025 5.24581 5.42085C5.13642 5.31146 4.98804 5.25 4.83333 5.25C4.67862 5.25 4.53025 5.31146 4.42085 5.42085C4.31146 5.53025 4.25 5.67862 4.25 5.83333V9.91667C4.25 10.0714 4.31146 10.2197 4.42085 10.3291C4.53025 10.4385 4.67862 10.5 4.83333 10.5C4.98804 10.5 5.13642 10.4385 5.24581 10.3291C5.35521 10.2197 5.41667 10.0714 5.41667 9.91667ZM7.75 9.91667V5.83333C7.75 5.67862 7.68854 5.53025 7.57915 5.42085C7.46975 5.31146 7.32138 5.25 7.16667 5.25C7.01196 5.25 6.86358 5.31146 6.75419 5.42085C6.64479 5.53025 6.58333 5.67862 6.58333 5.83333V9.91667C6.58333 10.0714 6.64479 10.2197 6.75419 10.3291C6.86358 10.4385 7.01196 10.5 7.16667 10.5C7.32138 10.5 7.46975 10.4385 7.57915 10.3291C7.68854 10.2197 7.75 10.0714 7.75 9.91667Z" fill="white"/>
</svg>
