<svg width="19" height="15" viewBox="0 0 19 15" fill="none" xmlns="http://www.w3.org/2000/svg">
<path d="M12.391 8.69192C12.391 10.3045 11.0792 11.6164 9.46657 11.6164C7.85395 11.6164 6.5426 10.3045 6.5426 8.69192C6.5426 7.0793 7.85395 5.76745 9.46657 5.76745C11.0792 5.76745 12.391 7.07981 12.391 8.69192ZM18.5332 4.53932V12.8455C18.5332 13.3773 18.322 13.8873 17.9459 14.2634C17.5699 14.6394 17.0599 14.8507 16.5281 14.8507H2.40503C1.87323 14.8507 1.36322 14.6394 0.987189 14.2634C0.611156 13.8873 0.399902 13.3773 0.399902 12.8455V4.53932C0.399902 4.00752 0.611156 3.49751 0.987189 3.12148C1.36322 2.74545 1.87323 2.53419 2.40503 2.53419H4.87133V1.84042C4.87133 1.3751 5.05617 0.928843 5.3852 0.599814C5.71423 0.270784 6.16049 0.0859375 6.62581 0.0859375H12.3073C12.7726 0.0859375 13.2189 0.270784 13.5479 0.599814C13.877 0.928843 14.0618 1.3751 14.0618 1.84042V2.53369H16.5281C17.6354 2.53419 18.5332 3.43199 18.5332 4.53932ZM13.8949 8.69192C13.8949 6.25019 11.9083 4.26361 9.46657 4.26361C7.02533 4.26361 5.03875 6.25019 5.03875 8.69192C5.03875 11.1337 7.02533 13.1202 9.46657 13.1202C11.9083 13.1202 13.8949 11.1337 13.8949 8.69192Z" fill="#BFBFBF"/>
</svg>
