<svg width="20" height="20" viewBox="0 0 20 20" fill="none" xmlns="http://www.w3.org/2000/svg">
<path d="M11.3129 4.12451H2.18818C0.984683 4.12451 0 5.10919 0 6.3127V13.6869C0 14.8904 0.984683 15.8751 2.18818 15.8751H11.3129C12.5164 15.8751 13.5011 14.8904 13.5011 13.6869V6.3127C13.5011 5.08731 12.5164 4.12451 11.3129 4.12451ZM18.3807 5.32801C18.2495 5.34989 18.1182 5.41554 18.0088 5.48119L14.5952 7.45055V12.5271L18.0306 14.4965C18.6652 14.8685 19.453 14.6497 19.8249 14.0151C19.9344 13.8182 20 13.5993 20 13.3586V6.59716C20 5.78753 19.2341 5.13108 18.3807 5.32801Z" fill="#fff"/>
</svg>
