<svg width="12" height="19" viewBox="0 0 12 19" fill="none" xmlns="http://www.w3.org/2000/svg">
<path d="M11.316 9.66158C11.316 9.32236 11.041 9.04736 10.7018 9.04736C10.3626 9.04736 10.0876 9.32236 10.0876 9.66158C10.0872 12.0621 8.1409 14.0078 5.74036 14.0075C3.34033 14.0071 1.3948 12.0616 1.39444 9.66158C1.39444 9.32236 1.11944 9.04736 0.780228 9.04736C0.441012 9.04736 0.166016 9.32236 0.166016 9.66158C0.169255 12.5015 2.30452 14.8861 5.12682 15.2018V16.8397H2.89314C2.55393 16.8397 2.27893 17.1147 2.27893 17.4539C2.27893 17.7931 2.55393 18.0681 2.89314 18.0681H8.58893C8.92814 18.0681 9.20314 17.7931 9.20314 17.4539C9.20314 17.1147 8.92814 16.8397 8.58893 16.8397H6.35525V15.2018C9.17751 14.8861 11.3128 12.5015 11.316 9.66158Z" fill="white"/>
<path d="M5.74168 0.666504C3.84998 0.666504 2.31641 2.20004 2.31641 4.09178V9.63813C2.31865 11.5289 3.8509 13.0611 5.74168 13.0634C7.63246 13.0612 9.16468 11.5289 9.16696 9.63813V4.09178C9.16696 2.20004 7.63342 0.666504 5.74168 0.666504Z" fill="white"/>
</svg>
