<svg width="84" height="63" viewBox="0 0 84 63" fill="none" xmlns="http://www.w3.org/2000/svg">
<path fill-rule="evenodd" clip-rule="evenodd" d="M64.6923 57.3536L64.0789 59.776L3.5293 44.4484L4.14189 42.0261C8.98663 43.252 12.7445 38.5856 13.3523 36.1881L16.8463 22.3824C19.6134 12.3354 28.7622 5.38342 39.1843 5.40901C40.0768 2.07655 43.5028 0.099632 46.8344 0.992926C50.1669 1.88622 52.1446 5.31144 51.2505 8.6439C60.3906 13.7454 65.0754 24.2609 62.7538 34.467L59.3701 47.8369C58.652 50.6703 62.2708 56.7402 64.6923 57.3536Z" fill="#BEBEBE"/>
<path fill-rule="evenodd" clip-rule="evenodd" d="M22.9277 51.9502C23.5091 58.1321 28.9913 62.6729 35.1731 62.0923C38.54 61.7764 41.5861 59.961 43.4671 57.1492L22.9277 51.9502Z" fill="#1E4969"/>
<path fill-rule="evenodd" clip-rule="evenodd" d="M71.7444 14.8062C73.1543 16.5024 74.2132 18.5001 74.9329 20.6178C75.6663 22.7362 76.0246 24.9867 76.0613 27.2387C76.0613 28.3655 75.9806 29.4907 75.835 30.6063C75.6431 31.7164 75.4216 32.8184 75.0729 33.886C74.3987 36.0221 73.3799 38.0478 71.9915 39.772C71.9316 39.8464 71.8244 39.8576 71.75 39.7984C71.6924 39.7512 71.6732 39.6744 71.6956 39.6073C72.4186 37.5496 73.0176 35.5199 73.4198 33.4606C73.4942 32.9407 73.5966 32.4289 73.683 31.9147C73.7421 31.3957 73.8205 30.8806 73.8653 30.3624C73.8989 29.8434 73.9661 29.3276 73.9877 28.8086C73.9956 28.2887 74.0204 27.7697 74.018 27.2507C74.03 25.1722 73.7981 23.0969 73.3943 21.0368C72.9792 18.9751 72.3546 16.9446 71.6045 14.8869C71.5893 14.8446 71.6109 14.7974 71.6533 14.7822C71.6868 14.7694 71.7228 14.7806 71.7444 14.8062Z" fill="#1E4969"/>
<path fill-rule="evenodd" clip-rule="evenodd" d="M79.6859 15.527C81.047 17.0952 82.0722 18.9554 82.7864 20.9299C83.5022 22.9068 83.9156 25.0069 83.9892 27.1198C84.0692 29.2319 83.8116 31.3551 83.247 33.3776C82.6832 35.3993 81.8043 37.3315 80.5648 38.9965C80.5568 39.0069 80.5416 39.0093 80.532 39.0021C80.524 38.9957 80.5208 38.9853 80.5232 38.9765C81.0366 36.9724 81.4669 35.0227 81.7276 33.0625C81.9883 31.1032 82.0738 29.1447 82.0011 27.1934C81.9211 25.2428 81.6852 23.2987 81.2701 21.369C80.8567 19.4368 80.2721 17.5303 79.6059 15.5733C79.5979 15.5486 79.6107 15.5222 79.6355 15.5134C79.6539 15.507 79.6739 15.5126 79.6859 15.527Z" fill="#1E4969"/>
<path fill-rule="evenodd" clip-rule="evenodd" d="M7.10235 25.5351C6.6705 23.3846 6.6657 21.1382 7.00798 18.9421C7.33907 16.7405 8.05082 14.594 9.03929 12.5891C10.0517 10.5962 11.3457 8.74162 12.9084 7.15496C14.4598 5.56271 16.2592 4.21357 18.2441 3.2715C18.2801 3.2547 18.3217 3.2699 18.3385 3.30508C18.3521 3.33387 18.3449 3.36746 18.3217 3.38826C16.7071 4.85415 15.2204 6.38243 13.9064 8.03706C12.6021 9.69489 11.4481 11.4567 10.5156 13.332C9.55751 15.1954 8.82656 17.1699 8.27075 19.2068C7.72374 21.2485 7.38625 23.3558 7.17113 25.5319C7.16873 25.5503 7.15193 25.5646 7.13274 25.5631C7.11754 25.5615 7.10555 25.5495 7.10235 25.5351Z" fill="#1E4969"/>
<path fill-rule="evenodd" clip-rule="evenodd" d="M0.322314 21.2831C-0.0863463 19.2638 -0.0935438 17.1597 0.203154 15.0996C0.509449 13.0395 1.12124 11.0154 2.02413 9.13047C2.91742 7.24232 4.07063 5.47572 5.45815 3.92825C6.83928 2.37838 8.43553 1.02365 10.2141 0C8.76182 1.4459 7.42788 2.95419 6.26428 4.57603C5.10467 6.19947 4.09622 7.91169 3.2789 9.71267C2.46958 11.516 1.8202 13.389 1.35716 15.3219C0.881322 17.2541 0.59582 19.2366 0.39029 21.2799C0.387891 21.2983 0.371897 21.3119 0.351903 21.3103C0.337508 21.3087 0.324713 21.2975 0.322314 21.2831Z" fill="#1E4969"/>
</svg>
