<svg width="20" height="20" viewBox="0 0 20 20" fill="none" xmlns="http://www.w3.org/2000/svg">
<path d="M17.4095 1.17627H15.6448V2.94098C15.6448 3.29392 15.3506 3.52921 15.0565 3.52921C14.7624 3.52921 14.4683 3.29392 14.4683 2.94098V1.17627H5.05653V2.94098C5.05653 3.29392 4.76241 3.52921 4.46829 3.52921C4.17417 3.52921 3.88006 3.29392 3.88006 2.94098V1.17627H2.11535C1.233 1.17627 0.585938 1.94098 0.585938 2.94098V5.05862H19.4095V2.94098C19.4095 1.94098 18.3506 1.17627 17.4095 1.17627ZM0.585938 6.29392V17.0586C0.585938 18.1174 1.233 18.8233 2.17417 18.8233H17.4683C18.4095 18.8233 19.4683 18.0586 19.4683 17.0586V6.29392H0.585938ZM5.82123 16.1763H4.40947C4.17417 16.1763 3.93888 15.9998 3.93888 15.7057V14.2351C3.93888 13.9998 4.11535 13.7645 4.40947 13.7645H5.88006C6.11535 13.7645 6.35064 13.941 6.35064 14.2351V15.7057C6.29182 15.9998 6.11535 16.1763 5.82123 16.1763ZM5.82123 10.8822H4.40947C4.17417 10.8822 3.93888 10.7057 3.93888 10.4116V8.94097C3.93888 8.70568 4.11535 8.47039 4.40947 8.47039H5.88006C6.11535 8.47039 6.35064 8.64686 6.35064 8.94097V10.4116C6.29182 10.7057 6.11535 10.8822 5.82123 10.8822ZM10.5271 16.1763H9.05653C8.82123 16.1763 8.58594 15.9998 8.58594 15.7057V14.2351C8.58594 13.9998 8.76241 13.7645 9.05653 13.7645H10.5271C10.7624 13.7645 10.9977 13.941 10.9977 14.2351V15.7057C10.9977 15.9998 10.8212 16.1763 10.5271 16.1763ZM10.5271 10.8822H9.05653C8.82123 10.8822 8.58594 10.7057 8.58594 10.4116V8.94097C8.58594 8.70568 8.76241 8.47039 9.05653 8.47039H10.5271C10.7624 8.47039 10.9977 8.64686 10.9977 8.94097V10.4116C10.9977 10.7057 10.8212 10.8822 10.5271 10.8822ZM15.233 16.1763H13.7624C13.5271 16.1763 13.2918 15.9998 13.2918 15.7057V14.2351C13.2918 13.9998 13.4683 13.7645 13.7624 13.7645H15.233C15.4683 13.7645 15.7036 13.941 15.7036 14.2351V15.7057C15.7036 15.9998 15.5271 16.1763 15.233 16.1763ZM15.233 10.8822H13.7624C13.5271 10.8822 13.2918 10.7057 13.2918 10.4116V8.94097C13.2918 8.70568 13.4683 8.47039 13.7624 8.47039H15.233C15.4683 8.47039 15.7036 8.64686 15.7036 8.94097V10.4116C15.7036 10.7057 15.5271 10.8822 15.233 10.8822Z" fill="#fff"/>
</svg>
