<svg width="20" height="20" viewBox="0 0 20 20" fill="none" xmlns="http://www.w3.org/2000/svg">
<path d="M18.2563 7.39981C17.8916 7.34684 17.5435 7.21227 17.238 7.00614C16.9326 6.8 16.6775 6.52761 16.4919 6.20924C16.3063 5.89087 16.1949 5.53474 16.166 5.16735C16.1371 4.79996 16.1915 4.43078 16.325 4.08731C16.4099 3.86276 16.4224 3.61728 16.3608 3.38526C16.2991 3.15325 16.1664 2.94635 15.9813 2.79356C15.1638 2.1071 14.2333 1.56784 13.2313 1.19981C13.0031 1.11505 12.754 1.10446 12.5194 1.16955C12.2849 1.23464 12.0769 1.37208 11.925 1.56231C11.6964 1.85459 11.4043 2.09099 11.0708 2.25357C10.7372 2.41615 10.3711 2.50064 10 2.50064C9.62897 2.50064 9.26279 2.41615 8.92926 2.25357C8.59572 2.09099 8.30359 1.85459 8.07501 1.56231C7.92315 1.37208 7.71513 1.23464 7.48059 1.16955C7.24604 1.10446 6.99694 1.11505 6.76876 1.19981C5.84356 1.53959 4.97851 2.02486 4.20626 2.63731C4.0116 2.79141 3.87139 3.00379 3.80616 3.24334C3.74093 3.48289 3.75411 3.73704 3.84376 3.96856C3.98799 4.32112 4.04757 4.70256 4.01775 5.08231C3.98792 5.46205 3.86951 5.82952 3.67201 6.15524C3.47452 6.48095 3.20343 6.75585 2.88051 6.95788C2.55758 7.1599 2.1918 7.28343 1.81251 7.31856C1.56627 7.34489 1.33498 7.44958 1.15271 7.61723C0.970433 7.78488 0.846801 8.00662 0.800014 8.24981C0.683637 8.82587 0.625014 9.41211 0.625014 9.99981C0.624158 10.4918 0.663876 10.9831 0.743764 11.4686C0.783523 11.7195 0.904855 11.9504 1.089 12.1255C1.27315 12.3007 1.50985 12.4102 1.76251 12.4373C2.15014 12.4737 2.5234 12.6024 2.85108 12.8126C3.17875 13.0229 3.4513 13.3085 3.64591 13.6457C3.84052 13.9829 3.95152 14.3618 3.96963 14.7507C3.98775 15.1397 3.91244 15.5272 3.75001 15.8811C3.64372 16.1112 3.61735 16.3703 3.6751 16.6171C3.73285 16.864 3.8714 17.0844 4.06876 17.2436C4.88133 17.9176 5.80287 18.4481 6.79376 18.8123C6.92048 18.8562 7.05343 18.8794 7.18751 18.8811C7.37137 18.8807 7.55245 18.8362 7.71557 18.7514C7.87869 18.6665 8.0191 18.5438 8.12501 18.3936C8.34777 18.069 8.64638 17.8037 8.99491 17.6207C9.34344 17.4378 9.73137 17.3426 10.125 17.3436C10.5064 17.344 10.8825 17.4336 11.2232 17.605C11.5639 17.7764 11.8598 18.0251 12.0875 18.3311C12.239 18.5346 12.4535 18.6824 12.6977 18.7514C12.9418 18.8203 13.202 18.8066 13.4375 18.7123C14.3436 18.3477 15.1871 17.8437 15.9375 17.2186C16.126 17.0627 16.2603 16.8511 16.3209 16.6141C16.3815 16.3772 16.3655 16.1271 16.275 15.8998C16.128 15.5518 16.0639 15.1744 16.0878 14.7973C16.1117 14.4203 16.2228 14.054 16.4125 13.7273C16.6023 13.4006 16.8653 13.1225 17.1809 12.9149C17.4966 12.7073 17.8561 12.5759 18.2313 12.5311C18.4745 12.4974 18.7007 12.3872 18.8771 12.2164C19.0536 12.0456 19.171 11.8231 19.2125 11.5811C19.3129 11.0598 19.3673 10.5306 19.375 9.99981C19.3751 9.4399 19.3228 8.88121 19.2188 8.33106C19.1766 8.09437 19.0609 7.877 18.8881 7.70983C18.7153 7.54265 18.4942 7.43418 18.2563 7.39981ZM13.125 9.99981C13.125 10.6179 12.9417 11.2221 12.5984 11.736C12.255 12.2499 11.7669 12.6504 11.1959 12.8869C10.6249 13.1235 9.99655 13.1853 9.39036 13.0648C8.78417 12.9442 8.22734 12.6466 7.79031 12.2095C7.35327 11.7725 7.05564 11.2157 6.93506 10.6095C6.81448 10.0033 6.87637 9.37494 7.11289 8.80392C7.34941 8.2329 7.74995 7.74485 8.26386 7.40147C8.77776 7.05809 9.38195 6.87481 10 6.87481C10.8288 6.87481 11.6237 7.20405 12.2097 7.7901C12.7958 8.37615 13.125 9.17101 13.125 9.99981Z" fill="#fff"/>
</svg>
