<svg width="20" height="20" viewBox="0 0 20 20" fill="none" xmlns="http://www.w3.org/2000/svg">
<path d="M18.9955 19L19 18.9993V12.3977C19 9.16825 18.3048 6.6805 14.5292 6.6805C12.7142 6.6805 11.4963 7.6765 10.999 8.62075H10.9465V6.982H7.36675V18.9993H11.0942V13.0487C11.0942 11.482 11.3912 9.967 13.3315 9.967C15.2432 9.967 15.2717 11.755 15.2717 13.1493V19H18.9955ZM1.297 6.98275H5.029V19H1.297V6.98275ZM3.1615 1C1.96825 1 1 1.96825 1 3.1615C1 4.35475 1.96825 5.34325 3.1615 5.34325C4.35475 5.34325 5.323 4.35475 5.323 3.1615C5.3226 2.58836 5.09475 2.0388 4.68947 1.63353C4.2842 1.22825 3.73464 1.0004 3.1615 1Z" fill="url(#paint0_linear_91_6986)"/>
<defs>
<linearGradient id="paint0_linear_91_6986" x1="10" y1="1" x2="10" y2="19" gradientUnits="userSpaceOnUse">
<stop stop-color="#287BE0"/>
<stop offset="1" stop-color="#043B7D"/>
</linearGradient>
</defs>
</svg>
