<svg width="38" height="42" viewBox="0 0 38 42" fill="none" xmlns="http://www.w3.org/2000/svg">
<path d="M26.0063 27.7499C30.4756 20.7368 29.9138 21.6118 30.0426 21.4289C31.6698 19.1339 32.5298 16.4327 32.5298 13.6172C32.5298 6.1507 26.4709 0 18.9946 0C11.5427 0 5.45947 6.13856 5.45947 13.6172C5.45947 16.4309 6.33754 19.2028 8.01803 21.5288L11.9828 27.75C7.7438 28.4014 0.537598 30.3427 0.537598 34.6172C0.537598 36.1754 1.55462 38.396 6.39971 40.1263C9.78285 41.3346 14.2558 42 18.9946 42C27.8561 42 37.4517 39.5003 37.4517 34.6172C37.4517 30.342 30.2539 28.4027 26.0063 27.7499ZM10.0736 20.1752C10.0601 20.154 10.046 20.1333 10.0312 20.113C8.63285 18.1892 7.92041 15.9092 7.92041 13.6172C7.92041 7.46337 12.8756 2.46094 18.9946 2.46094C25.101 2.46094 30.0688 7.46558 30.0688 13.6172C30.0688 15.9129 29.3699 18.1155 28.0471 19.9886C27.9286 20.145 28.547 19.1842 18.9946 34.1733L10.0736 20.1752ZM18.9946 39.5391C9.31543 39.5391 2.99854 36.694 2.99854 34.6172C2.99854 33.2213 6.24435 30.9262 13.4368 30.0316L17.9569 37.1242C18.0681 37.2987 18.2214 37.4423 18.4028 37.5418C18.5842 37.6413 18.7877 37.6935 18.9945 37.6935C19.2014 37.6935 19.4049 37.6413 19.5863 37.5418C19.7677 37.4423 19.921 37.2987 20.0322 37.1242L24.5522 30.0316C31.7448 30.9262 34.9907 33.2213 34.9907 34.6172C34.9907 36.6763 28.7307 39.5391 18.9946 39.5391Z" fill="#BFBFBF"/>
<path d="M18.9946 7.46484C15.6022 7.46484 12.8423 10.2248 12.8423 13.6172C12.8423 17.0096 15.6022 19.7695 18.9946 19.7695C22.387 19.7695 25.147 17.0096 25.147 13.6172C25.147 10.2248 22.387 7.46484 18.9946 7.46484ZM18.9946 17.3086C16.9592 17.3086 15.3032 15.6526 15.3032 13.6172C15.3032 11.5817 16.9592 9.92578 18.9946 9.92578C21.0301 9.92578 22.686 11.5817 22.686 13.6172C22.686 15.6526 21.0301 17.3086 18.9946 17.3086Z" fill="#BFBFBF"/>
</svg>
