<svg width="34" height="34" viewBox="0 0 34 34" fill="none" xmlns="http://www.w3.org/2000/svg">
<path d="M26.6003 5.66699H24.3054V7.93366C24.3054 8.38699 23.9229 8.68921 23.5404 8.68921C23.158 8.68921 22.7755 8.38699 22.7755 7.93366V5.66699H10.5359V7.93366C10.5359 8.38699 10.1535 8.68921 9.77097 8.68921C9.38849 8.68921 9.006 8.38699 9.006 7.93366V5.66699H6.71109C5.56364 5.66699 4.72217 6.64921 4.72217 7.93366V10.6537H29.2012V7.93366C29.2012 6.64921 27.8243 5.66699 26.6003 5.66699ZM4.72217 12.2403V26.067C4.72217 27.427 5.56364 28.3337 6.78759 28.3337H26.6768C27.9008 28.3337 29.2777 27.3514 29.2777 26.067V12.2403H4.72217ZM11.5304 24.9337H9.69448C9.38849 24.9337 9.0825 24.707 9.0825 24.3292V22.4403C9.0825 22.1381 9.31199 21.8359 9.69448 21.8359H11.6069C11.9129 21.8359 12.2189 22.0625 12.2189 22.4403V24.3292C12.1424 24.707 11.9129 24.9337 11.5304 24.9337ZM11.5304 18.1337H9.69448C9.38849 18.1337 9.0825 17.907 9.0825 17.5292V15.6403C9.0825 15.3381 9.31199 15.0359 9.69448 15.0359H11.6069C11.9129 15.0359 12.2189 15.2625 12.2189 15.6403V17.5292C12.1424 17.907 11.9129 18.1337 11.5304 18.1337ZM17.6502 24.9337H15.7377C15.4318 24.9337 15.1258 24.707 15.1258 24.3292V22.4403C15.1258 22.1381 15.3553 21.8359 15.7377 21.8359H17.6502C17.9562 21.8359 18.2621 22.0625 18.2621 22.4403V24.3292C18.2621 24.707 18.0327 24.9337 17.6502 24.9337ZM17.6502 18.1337H15.7377C15.4318 18.1337 15.1258 17.907 15.1258 17.5292V15.6403C15.1258 15.3381 15.3553 15.0359 15.7377 15.0359H17.6502C17.9562 15.0359 18.2621 15.2625 18.2621 15.6403V17.5292C18.2621 17.907 18.0327 18.1337 17.6502 18.1337ZM23.7699 24.9337H21.8575C21.5515 24.9337 21.2455 24.707 21.2455 24.3292V22.4403C21.2455 22.1381 21.475 21.8359 21.8575 21.8359H23.7699C24.0759 21.8359 24.3819 22.0625 24.3819 22.4403V24.3292C24.3819 24.707 24.1524 24.9337 23.7699 24.9337ZM23.7699 18.1337H21.8575C21.5515 18.1337 21.2455 17.907 21.2455 17.5292V15.6403C21.2455 15.3381 21.475 15.0359 21.8575 15.0359H23.7699C24.0759 15.0359 24.3819 15.2625 24.3819 15.6403V17.5292C24.3819 17.907 24.1524 18.1337 23.7699 18.1337Z" fill="#BFBFBF"/>
</svg>
