<svg width="34" height="34" viewBox="0 0 34 34" fill="none" xmlns="http://www.w3.org/2000/svg">
<path d="M8.6084 9.2725C8.6084 8.2297 8.91649 7.21032 9.49373 6.34326C10.071 5.4762 10.8914 4.80041 11.8513 4.40135C12.8112 4.00228 13.8675 3.89787 14.8865 4.10131C15.9055 4.30475 16.8415 4.80691 17.5762 5.54428C18.3109 6.28165 18.8112 7.22112 19.0139 8.24389C19.2166 9.26665 19.1126 10.3268 18.715 11.2902C18.3174 12.2536 17.6441 13.0771 16.7802 13.6564C15.9163 14.2358 14.9006 14.545 13.8616 14.545C12.4684 14.545 11.1322 13.9895 10.147 13.0007C9.16186 12.0119 8.6084 10.6709 8.6084 9.2725ZM17.9211 25.5118C17.5731 25.1861 17.3252 24.7674 17.2066 24.305C17.0879 23.8426 17.1034 23.3558 17.2513 22.9019C17.3951 22.4418 17.6667 22.0324 18.0343 21.7219C18.4018 21.4113 18.8501 21.2125 19.3263 21.1488L20.9679 20.9115C20.9679 20.9115 21.2306 20.8865 21.3094 20.727L21.8347 19.6725C21.8768 19.5962 21.8951 19.5089 21.8873 19.4221C21.8709 19.3478 21.8346 19.2794 21.7822 19.2243C21.0916 18.5273 20.2617 17.9848 19.3472 17.6327C18.4328 17.2806 17.4544 17.1267 16.4764 17.1813H11.2232C5.89116 17.1813 4 21.0961 4 24.4573C4 27.4626 5.5891 29.0444 8.59658 29.0444H18.5646C18.7747 29.0444 18.9087 28.8862 18.9717 28.5435L19.2344 27.0276C19.2485 26.9631 19.2449 26.896 19.2241 26.8334C19.2033 26.7707 19.166 26.7149 19.1162 26.6718L17.9211 25.5118ZM29.4348 24.0869C29.5125 24.0119 29.5675 23.9163 29.5933 23.8113C29.6192 23.7063 29.6149 23.596 29.581 23.4933C29.547 23.3906 29.4849 23.2996 29.4016 23.2309C29.3183 23.1622 29.2174 23.1185 29.1105 23.1049L26.4943 22.7319C26.4011 22.7189 26.3124 22.6835 26.2358 22.6286C26.1592 22.5737 26.0969 22.5011 26.0544 22.4168L24.9197 20.1602C24.8665 20.0568 24.786 19.97 24.687 19.9094C24.588 19.8488 24.4742 19.8168 24.3582 19.8168C24.2423 19.8168 24.1285 19.8488 24.0295 19.9094C23.9305 19.97 23.85 20.0568 23.7968 20.1602L22.6634 22.4168C22.6208 22.501 22.5585 22.5736 22.4819 22.6285C22.4053 22.6833 22.3166 22.7188 22.2235 22.7319L19.6074 23.1049C19.5001 23.118 19.3988 23.1614 19.3152 23.2301C19.2316 23.2987 19.1692 23.3898 19.1352 23.4928C19.1012 23.5957 19.097 23.7062 19.1232 23.8114C19.1494 23.9165 19.2048 24.0121 19.283 24.0869L21.1741 25.898C21.2423 25.9626 21.2934 26.0431 21.3229 26.1323C21.3525 26.2216 21.3596 26.3168 21.3435 26.4094L20.9115 28.8862C20.8932 29.001 20.9072 29.1187 20.952 29.2259C20.9967 29.3332 21.0704 29.4257 21.1646 29.4933C21.2589 29.5608 21.3701 29.6006 21.4857 29.6081C21.6013 29.6157 21.7167 29.5907 21.819 29.536L24.087 28.3655C24.1711 28.322 24.2643 28.2992 24.3589 28.2992C24.4535 28.2992 24.5467 28.322 24.6308 28.3655L26.9002 29.5374C27.0023 29.5917 27.1176 29.6163 27.233 29.6086C27.3483 29.6009 27.4593 29.561 27.5534 29.4936C27.6475 29.4261 27.721 29.3337 27.7656 29.2266C27.8103 29.1196 27.8244 29.0022 27.8063 28.8875L27.3769 26.4081C27.3609 26.3156 27.3679 26.2205 27.3972 26.1313C27.4265 26.0421 27.4773 25.9615 27.545 25.8967L29.4348 24.0869Z" fill="#BFBFBF"/>
</svg>
