<svg width="34" height="34" viewBox="0 0 34 34" fill="none" xmlns="http://www.w3.org/2000/svg">
<path d="M20.058 9.84356C21.2884 10.615 22.1511 11.9204 22.3082 13.4357C22.8241 13.6784 23.3872 13.8045 23.9573 13.805C26.1129 13.805 27.86 12.0579 27.86 9.90267C27.86 7.7471 26.1129 6 23.9573 6C21.8224 6.00066 20.0905 7.71655 20.058 9.84356ZM17.5013 17.8342C19.6568 17.8342 21.4039 16.0868 21.4039 13.9315C21.4039 11.7763 19.6565 10.0292 17.5013 10.0292C15.346 10.0292 13.5979 11.7766 13.5979 13.9319C13.5979 16.0871 15.346 17.8342 17.5013 17.8342ZM19.1567 18.1002H15.8452C13.0898 18.1002 10.8483 20.3421 10.8483 23.0974V27.1472L10.8586 27.2106L11.1375 27.298C13.767 28.1195 16.0514 28.3935 17.9316 28.3935C21.6042 28.3935 23.7328 27.3465 23.864 27.2797L24.1247 27.1479H24.1526V23.0974C24.1536 20.3421 21.912 18.1002 19.1567 18.1002ZM25.6134 14.0713H22.3275C22.2941 15.3402 21.7605 16.5443 20.843 17.4214C23.2922 18.1497 25.0841 20.4208 25.0841 23.1034V24.3514C28.3286 24.2325 30.1982 23.3129 30.3214 23.2512L30.5821 23.119H30.61V19.0679C30.61 16.3129 28.3684 14.0713 25.6134 14.0713ZM10.6533 13.8057C11.4168 13.8057 12.1271 13.5828 12.7289 13.2033C12.9177 11.982 13.5674 10.8796 14.5444 10.1228C14.5484 10.0498 14.5553 9.97739 14.5553 9.90366C14.5553 7.7481 12.8079 6.001 10.6533 6.001C8.49743 6.001 6.75066 7.7481 6.75066 9.90366C6.75066 12.0582 8.49743 13.8057 10.6533 13.8057ZM14.1582 17.4214C13.2458 16.5485 12.713 15.352 12.6747 14.0899C12.5529 14.081 12.4323 14.0713 12.3081 14.0713H8.99689C6.24158 14.0713 4 16.3129 4 19.0679V23.1183L4.01029 23.1808L4.28925 23.2688C6.39865 23.9273 8.28124 24.2308 9.91643 24.3265V23.1034C9.9171 20.4208 11.7084 18.1503 14.1582 17.4214Z" fill="#BFBFBF"/>
</svg>
