<svg width="60" height="60" viewBox="0 0 60 60" fill="none" xmlns="http://www.w3.org/2000/svg">
<path d="M30.1436 41.7823C27.8413 41.7823 25.5907 41.0996 23.6764 39.8205C21.7621 38.5414 20.2701 36.7234 19.3891 34.5963C18.508 32.4693 18.2775 30.1287 18.7266 27.8707C19.1758 25.6126 20.2845 23.5384 21.9124 21.9105C23.5404 20.2825 25.6146 19.1738 27.8726 18.7247C30.1307 18.2755 32.4712 18.506 34.5983 19.3871C36.7253 20.2682 38.5434 21.7602 39.8224 23.6745C41.1015 25.5888 41.7842 27.8393 41.7842 30.1416C41.7808 33.2279 40.5532 36.1867 38.3709 38.369C36.1886 40.5513 33.2298 41.7788 30.1436 41.7823ZM30.1436 23.1578C28.7624 23.1578 27.4121 23.5674 26.2637 24.3348C25.1152 25.1021 24.2201 26.1928 23.6915 27.469C23.1629 28.7451 23.0246 30.1493 23.294 31.504C23.5635 32.8587 24.2286 34.1031 25.2053 35.0798C26.182 36.0565 27.4264 36.7216 28.7811 36.9911C30.1358 37.2606 31.54 37.1223 32.8161 36.5937C34.0922 36.0652 35.1829 35.17 35.9503 34.0216C36.7177 32.8731 37.1273 31.5229 37.1274 30.1416C37.1252 28.2901 36.3888 26.515 35.0795 25.2057C33.7703 23.8965 31.9952 23.16 30.1436 23.1579V23.1578ZM9.18777 23.1564C8.57024 23.1564 7.978 22.9111 7.54134 22.4744C7.10469 22.0377 6.85938 21.4455 6.85938 20.828V13.8427C6.86148 11.9907 7.59811 10.2152 8.90765 8.90569C10.2172 7.59615 11.9927 6.85953 13.8447 6.85742H20.8299C21.4475 6.85742 22.0397 7.10274 22.4764 7.53941C22.9131 7.97608 23.1584 8.56832 23.1584 9.18587C23.1584 9.80341 22.9131 10.3957 22.4764 10.8323C22.0397 11.269 21.4475 11.5143 20.8299 11.5143H13.8447C13.2273 11.515 12.6355 11.7605 12.199 12.197C11.7625 12.6336 11.517 13.2254 11.5163 13.8427V20.828C11.5163 21.1338 11.456 21.4365 11.339 21.719C11.222 22.0015 11.0505 22.2582 10.8343 22.4744C10.618 22.6906 10.3613 22.8622 10.0788 22.9792C9.79633 23.0962 9.49354 23.1564 9.18777 23.1564ZM46.4426 53.4259H39.4573C38.8397 53.4259 38.2475 53.1806 37.8108 52.7439C37.3741 52.3072 37.1288 51.715 37.1288 51.0974C37.1288 50.4799 37.3741 49.8876 37.8108 49.451C38.2475 49.0143 38.8397 48.769 39.4573 48.769H46.4426C47.0599 48.7683 47.6517 48.5228 48.0882 48.0863C48.5247 47.6497 48.7703 47.0579 48.7709 46.4406V39.4553C48.7709 38.8378 49.0163 38.2455 49.4529 37.8089C49.8896 37.3722 50.4818 37.1269 51.0994 37.1269C51.7169 37.1269 52.3092 37.3722 52.7458 37.8089C53.1825 38.2455 53.4278 38.8378 53.4278 39.4553V46.4406C53.4257 48.2926 52.6891 50.0681 51.3796 51.3776C50.07 52.6871 48.2945 53.4238 46.4426 53.4259ZM51.0994 23.1564C50.4819 23.1564 49.8897 22.9111 49.453 22.4744C49.0164 22.0377 48.7711 21.4455 48.7711 20.828V13.8427C48.7704 13.2254 48.5248 12.6336 48.0883 12.197C47.6518 11.7605 47.06 11.515 46.4427 11.5143H39.4574C38.8398 11.5143 38.2476 11.269 37.8109 10.8323C37.3743 10.3957 37.1289 9.80341 37.1289 9.18587C37.1289 8.56832 37.3743 7.97608 37.8109 7.53941C38.2476 7.10274 38.8398 6.85742 39.4574 6.85742H46.4427C48.2946 6.85953 50.0701 7.59615 51.3797 8.90569C52.6892 10.2152 53.4258 11.9907 53.4279 13.8427V20.828C53.4279 21.1338 53.3677 21.4365 53.2507 21.719C53.1337 22.0015 52.9622 22.2582 52.7459 22.4744C52.5297 22.6906 52.273 22.8622 51.9905 22.9792C51.708 23.0962 51.4052 23.1564 51.0994 23.1564ZM20.8299 53.4259H13.8447C11.9927 53.4238 10.2172 52.6871 8.90765 51.3776C7.59811 50.0681 6.86148 48.2926 6.85938 46.4406V39.4553C6.85938 38.8378 7.10469 38.2455 7.54136 37.8089C7.97803 37.3722 8.57028 37.1269 9.18782 37.1269C9.80536 37.1269 10.3976 37.3722 10.8343 37.8089C11.2709 38.2455 11.5163 38.8378 11.5163 39.4553V46.4406C11.517 47.0579 11.7625 47.6497 12.199 48.0863C12.6355 48.5228 13.2273 48.7683 13.8447 48.769H20.8299C21.4475 48.769 22.0397 49.0143 22.4764 49.451C22.9131 49.8876 23.1584 50.4799 23.1584 51.0974C23.1584 51.715 22.9131 52.3072 22.4764 52.7439C22.0397 53.1806 21.4475 53.4259 20.8299 53.4259Z" fill="url(#paint0_linear_91_6791)"/>
<defs>
<linearGradient id="paint0_linear_91_6791" x1="30.1437" y1="6.85742" x2="30.1437" y2="53.4259" gradientUnits="userSpaceOnUse">
<stop stop-color="#287BE0"/>
<stop offset="1" stop-color="#043B7D"/>
</linearGradient>
</defs>
</svg>
