<svg width="36" height="39" viewBox="0 0 36 39" fill="none" xmlns="http://www.w3.org/2000/svg">
<path d="M35.4991 10.1626C35.2737 6.41443 32.1439 3.47799 28.3744 3.47799H26.5392V2.0515C26.5392 1.67317 26.3889 1.31033 26.1214 1.04281C25.8539 0.775291 25.4911 0.625 25.1127 0.625C24.7344 0.625 24.3716 0.775291 24.104 1.04281C23.8365 1.31033 23.6862 1.67317 23.6862 2.0515V3.47799H12.2743V2.0515C12.2743 1.67317 12.124 1.31033 11.8565 1.04281C11.5889 0.775291 11.2261 0.625 10.8478 0.625C10.4694 0.625 10.1066 0.775291 9.83909 1.04281C9.57157 1.31033 9.42128 1.67317 9.42128 2.0515V3.47799H7.5861C3.81587 3.47799 0.686137 6.41443 0.461464 10.1626C0.0385083 17.2123 0.046354 24.3633 0.485001 31.4166C0.707535 34.9986 3.57693 37.868 7.15886 38.0905C10.7486 38.3137 14.3641 38.425 17.9795 38.425C21.5943 38.425 25.2104 38.3137 28.8002 38.0905C32.3822 37.868 35.2516 34.9986 35.4741 31.4166C35.9134 24.3669 35.9213 17.2166 35.4991 10.1626ZM32.6275 31.2397C32.5614 32.2799 32.1184 33.2602 31.3815 33.9971C30.6445 34.7341 29.6642 35.1771 28.6241 35.2432C21.5615 35.6819 14.399 35.6819 7.33646 35.2432C6.29635 35.1771 5.31601 34.7341 4.57906 33.9971C3.84211 33.2602 3.3991 32.2799 3.333 31.2397C2.99865 25.7965 2.9232 20.3404 3.1069 14.89H32.8543C33.0341 20.3392 32.9649 25.8191 32.6275 31.2397ZM10.8478 9.18398C11.2261 9.18398 11.5889 9.03368 11.8565 8.76616C12.124 8.49864 12.2743 8.13581 12.2743 7.75748V6.33098H23.6862V7.75748C23.6862 8.13581 23.8365 8.49864 24.104 8.76616C24.3716 9.03368 24.7344 9.18398 25.1127 9.18398C25.4911 9.18398 25.8539 9.03368 26.1214 8.76616C26.3889 8.49864 26.5392 8.13581 26.5392 7.75748V6.33098H28.3744C30.6376 6.33098 32.5162 8.08914 32.6511 10.333C32.6846 10.8993 32.6988 11.4692 32.7267 12.037H3.23386C3.26239 11.4692 3.27594 10.8993 3.30946 10.333C3.44427 8.08914 5.32225 6.33098 7.5861 6.33098H9.42128V7.75748C9.42128 8.13581 9.57157 8.49864 9.83909 8.76616C10.1066 9.03368 10.4694 9.18398 10.8478 9.18398Z" fill="#BFBFBF"/>
<path d="M10.8456 23.4497C12.0273 23.4497 12.9853 22.4917 12.9853 21.3099C12.9853 20.1282 12.0273 19.1702 10.8456 19.1702C9.66381 19.1702 8.70581 20.1282 8.70581 21.3099C8.70581 22.4917 9.66381 23.4497 10.8456 23.4497Z" fill="#BFBFBF"/>
<path d="M17.9823 23.4497C19.164 23.4497 20.122 22.4917 20.122 21.3099C20.122 20.1282 19.164 19.1702 17.9823 19.1702C16.8005 19.1702 15.8425 20.1282 15.8425 21.3099C15.8425 22.4917 16.8005 23.4497 17.9823 23.4497Z" fill="#BFBFBF"/>
<path d="M10.8456 30.5823C12.0273 30.5823 12.9853 29.6243 12.9853 28.4426C12.9853 27.2609 12.0273 26.3029 10.8456 26.3029C9.66381 26.3029 8.70581 27.2609 8.70581 28.4426C8.70581 29.6243 9.66381 30.5823 10.8456 30.5823Z" fill="#BFBFBF"/>
<path d="M25.1109 23.4497C26.2927 23.4497 27.2507 22.4917 27.2507 21.3099C27.2507 20.1282 26.2927 19.1702 25.1109 19.1702C23.9292 19.1702 22.9712 20.1282 22.9712 21.3099C22.9712 22.4917 23.9292 23.4497 25.1109 23.4497Z" fill="#BFBFBF"/>
<path d="M25.1109 30.5823C26.2927 30.5823 27.2507 29.6243 27.2507 28.4426C27.2507 27.2609 26.2927 26.3029 25.1109 26.3029C23.9292 26.3029 22.9712 27.2609 22.9712 28.4426C22.9712 29.6243 23.9292 30.5823 25.1109 30.5823Z" fill="#BFBFBF"/>
<path d="M17.9823 30.5823C19.164 30.5823 20.122 29.6243 20.122 28.4426C20.122 27.2609 19.164 26.3029 17.9823 26.3029C16.8005 26.3029 15.8425 27.2609 15.8425 28.4426C15.8425 29.6243 16.8005 30.5823 17.9823 30.5823Z" fill="#BFBFBF"/>
</svg>
