<svg width="38" height="30" viewBox="0 0 38 30" fill="none" xmlns="http://www.w3.org/2000/svg">
<path fill-rule="evenodd" clip-rule="evenodd" d="M9.75054 25.3432H4.52655C2.36293 25.3432 0.608643 23.5892 0.608643 21.4253V4.44757C0.608643 2.28395 2.36293 0.529663 4.52655 0.529663H33.258C35.4219 0.529663 37.1759 2.28395 37.1759 4.44757V21.4253C37.1759 23.5892 35.4219 25.3432 33.258 25.3432H28.034V26.3609C28.034 27.1301 27.7285 27.8678 27.1846 28.4117C26.6407 28.9556 25.903 29.2611 25.1338 29.2611H12.6507C11.8816 29.2611 11.1439 28.9556 10.6 28.4117C10.0561 27.8678 9.75054 27.1301 9.75054 26.3609V25.3432ZM12.3624 25.3432V26.3609C12.3624 26.5201 12.4915 26.6493 12.6507 26.6493H25.1338C25.2103 26.6493 25.2836 26.6189 25.3377 26.5648C25.3918 26.5107 25.4222 26.4374 25.4222 26.3609V25.3432H12.3624ZM34.5641 4.44757V21.4253C34.5641 21.7717 34.4265 22.1039 34.1815 22.3488C33.9366 22.5938 33.6044 22.7314 33.258 22.7314H4.52655C4.18021 22.7313 3.84809 22.5936 3.60322 22.3487C3.35835 22.1038 3.22079 21.7716 3.22079 21.4253V4.44757C3.22079 4.10126 3.35836 3.76914 3.60324 3.52426C3.84812 3.27938 4.18024 3.14181 4.52655 3.14181H33.258C33.6043 3.14181 33.9365 3.27937 34.1814 3.52424C34.4263 3.76911 34.564 4.10124 34.5641 4.44757ZM17.5864 11.5186L16.122 12.983C15.6124 13.4926 14.7846 13.4926 14.2749 12.983C13.7653 12.4733 13.7653 11.6456 14.2749 11.1359L17.9687 7.44211C18.2137 7.19725 18.5459 7.0597 18.8923 7.0597C19.2386 7.0597 19.5708 7.19725 19.8158 7.44211L23.5096 11.1359C24.0193 11.6456 24.0193 12.4733 23.5096 12.983C23 13.4926 22.1725 13.4926 21.6629 12.983L20.1982 11.5186V17.5074C20.1982 18.2283 19.613 18.8135 18.8924 18.8135C18.5461 18.8133 18.214 18.6756 17.9691 18.4307C17.7242 18.1858 17.5865 17.8537 17.5864 17.5074V11.5186Z" fill="#BFBFBF"/>
</svg>
