<svg width="38" height="38" viewBox="0 0 38 38" fill="none" xmlns="http://www.w3.org/2000/svg">
<path d="M34.2058 13.96H34.0445C33.8081 13.9579 33.5778 13.8846 33.3836 13.7498C33.1895 13.615 33.0404 13.4248 32.9559 13.204C32.8669 12.9908 32.8433 12.7559 32.8882 12.5293C32.9331 12.3027 33.0443 12.0946 33.2079 11.9314L33.3225 11.8167C34.0137 11.1229 34.4018 10.1835 34.4018 9.20411C34.4018 8.22476 34.0137 7.28532 33.3225 6.5915L31.4187 4.6889C30.7254 3.99718 29.786 3.60872 28.8067 3.60872C27.8273 3.60872 26.888 3.99718 26.1947 4.6889L26.08 4.80356C25.9111 4.96624 25.6984 5.07607 25.4679 5.11957C25.2374 5.16307 24.9993 5.13835 24.7827 5.04845C24.5661 4.95854 24.3804 4.80735 24.2485 4.61344C24.1166 4.41953 24.0442 4.19133 24.0401 3.95684V3.7943C24.0391 2.81481 23.6496 1.87572 22.957 1.18312C22.2644 0.49052 21.3253 0.100976 20.3458 0.0999756H17.6544C16.6749 0.100976 15.7358 0.49052 15.0432 1.18312C14.3506 1.87572 13.9611 2.81481 13.9601 3.7943V3.95684C13.954 4.18965 13.8805 4.41568 13.7485 4.60758C13.6165 4.79948 13.4318 4.94901 13.2166 5.03808C13.0014 5.12714 12.765 5.15191 12.536 5.10939C12.3071 5.06688 12.0953 4.95889 11.9265 4.79852L11.8181 4.68386C11.1248 3.99214 10.1855 3.60368 9.20612 3.60368C8.22678 3.60368 7.28742 3.99214 6.59414 4.68386L4.68398 6.58646C3.9928 7.28028 3.60473 8.21972 3.60473 9.19907C3.60473 10.1784 3.9928 11.1179 4.68398 11.8117L4.79864 11.9263C4.96377 12.0953 5.07429 12.31 5.11586 12.5425C5.15742 12.7751 5.12812 13.0148 5.03174 13.2304C4.94527 13.4453 4.79671 13.6294 4.60503 13.7594C4.41335 13.8893 4.18727 13.9592 3.9557 13.96H3.79442C2.81493 13.961 1.87585 14.3505 1.18324 15.0431C0.490642 15.7357 0.101098 16.6748 0.100098 17.6543V20.3457C0.101098 21.3251 0.490642 22.2642 1.18324 22.9568C1.87585 23.6494 2.81493 24.039 3.79442 24.04H3.9557C4.1921 24.0421 4.42239 24.1153 4.61656 24.2502C4.81074 24.385 4.95981 24.5752 5.04434 24.796C5.13333 25.0092 5.15689 25.244 5.11202 25.4706C5.06714 25.6972 4.95586 25.9054 4.79234 26.0686L4.67768 26.1832C3.9865 26.8771 3.59843 27.8165 3.59843 28.7958C3.59843 29.7752 3.9865 30.7146 4.67768 31.4085L6.58028 33.3098C7.27345 34.0022 8.21314 34.3911 9.19289 34.3911C10.1726 34.3911 11.1123 34.0022 11.8055 33.3098L11.9202 33.1951C12.0892 33.0302 12.3039 32.9197 12.5364 32.8782C12.7689 32.8366 13.0085 32.8658 13.2243 32.962C13.4391 33.0481 13.6233 33.1964 13.7533 33.3879C13.8833 33.5794 13.9531 33.8054 13.9538 34.0368V34.1994C13.9535 34.6854 14.049 35.1668 14.2348 35.6159C14.4207 36.065 14.6932 36.4731 15.0369 36.8168C15.3806 37.1605 15.7887 37.4331 16.2379 37.619C16.687 37.8048 17.1684 37.9003 17.6544 37.9H20.3458C21.3253 37.899 22.2644 37.5094 22.957 36.8168C23.6496 36.1242 24.0391 35.1851 24.0401 34.2057V34.0431C24.0462 33.8103 24.1197 33.5843 24.2517 33.3924C24.3837 33.2005 24.5684 33.0509 24.7836 32.9619C24.9988 32.8728 25.2352 32.848 25.4642 32.8906C25.6931 32.9331 25.9049 33.0411 26.0737 33.2014L26.1884 33.3161C26.8817 34.0078 27.821 34.3963 28.8004 34.3963C29.7797 34.3963 30.7191 34.0078 31.4124 33.3161L33.3162 31.4148C34.0074 30.7209 34.3955 29.7815 34.3955 28.8021C34.3955 27.8228 34.0074 26.8834 33.3162 26.1895L33.2016 26.0749C33.0364 25.9059 32.9259 25.6912 32.8843 25.4587C32.8428 25.2261 32.8721 24.9865 32.9685 24.7708C33.0547 24.5557 33.2032 24.3713 33.3949 24.2411C33.5866 24.1109 33.8128 24.0409 34.0445 24.04H34.2058C35.1853 24.039 36.1244 23.6494 36.817 22.9568C37.5096 22.2642 37.8991 21.3251 37.9001 20.3457V17.6543C37.8991 16.6748 37.5096 15.7357 36.817 15.0431C36.1244 14.3505 35.1853 13.961 34.2058 13.96ZM35.3801 20.3457C35.3798 20.657 35.2559 20.9555 35.0358 21.1757C34.8156 21.3958 34.5171 21.5196 34.2058 21.52H34.0445C33.3133 21.5262 32.6001 21.7475 31.9939 22.1563C31.3876 22.5651 30.9151 23.1433 30.6352 23.8189C30.3554 24.4944 30.2805 25.2374 30.4201 25.9552C30.5596 26.6729 30.9074 27.3338 31.4199 27.8553L31.5333 27.9699C31.7533 28.1905 31.8768 28.4893 31.8768 28.8009C31.8768 29.1124 31.7533 29.4113 31.5333 29.6319L29.6295 31.5332C29.4092 31.7534 29.1106 31.8771 28.7991 31.8771C28.4877 31.8771 28.189 31.7534 27.9688 31.5332L27.8554 31.4185C27.3337 30.9066 26.6729 30.5594 25.9553 30.4202C25.2377 30.281 24.4951 30.3559 23.8198 30.6357C23.1445 30.9154 22.5664 31.3876 22.1575 31.9935C21.7486 32.5994 21.5269 33.3122 21.5201 34.0431V34.2057C21.5198 34.517 21.3959 34.8155 21.1758 35.0357C20.9556 35.2558 20.6571 35.3796 20.3458 35.38H17.6544C17.3431 35.3796 17.0446 35.2558 16.8244 35.0357C16.6043 34.8155 16.4804 34.517 16.4801 34.2057V34.0431C16.4766 33.3107 16.2568 32.5957 15.8484 31.9877C15.44 31.3797 14.8611 30.9059 14.1844 30.6257C13.5077 30.3455 12.7633 30.2714 12.0447 30.4127C11.326 30.5539 10.6651 30.9043 10.1448 31.4198L10.0302 31.5345C9.80961 31.7541 9.51105 31.8773 9.19982 31.8773C8.88859 31.8773 8.59003 31.7541 8.36948 31.5345L6.46688 29.6331C6.2469 29.4125 6.12337 29.1137 6.12337 28.8021C6.12337 28.4906 6.2469 28.1918 6.46688 27.9712L6.58154 27.8565C7.0946 27.335 7.44273 26.674 7.58247 25.9559C7.72221 25.2378 7.64737 24.4944 7.36731 23.8186C7.08724 23.1427 6.61434 22.5643 6.00763 22.1555C5.40091 21.7468 4.68725 21.5257 3.9557 21.52H3.79442C3.48307 21.5196 3.18457 21.3958 2.96442 21.1757C2.74426 20.9555 2.62043 20.657 2.6201 20.3457V17.6543C2.62043 17.343 2.74426 17.0445 2.96442 16.8243C3.18457 16.6041 3.48307 16.4803 3.79442 16.48H3.9557C4.68689 16.4738 5.40007 16.2524 6.00633 15.8436C6.61259 15.4348 7.08511 14.8566 7.36497 14.1811C7.64483 13.5055 7.71966 12.7626 7.58012 12.0448C7.44058 11.327 7.09285 10.6662 6.58028 10.1447L6.46688 10.03C6.24698 9.80965 6.12348 9.51103 6.12348 9.1997C6.12348 8.88836 6.24698 8.58975 6.46688 8.36936L8.36948 6.4655C8.5897 6.24529 8.88838 6.12158 9.19982 6.12158C9.51125 6.12158 9.80993 6.24529 10.0302 6.4655L10.1436 6.58016C10.6651 7.09248 11.3259 7.44003 12.0436 7.57952C12.7613 7.71901 13.5041 7.64427 14.1796 7.36461C14.8551 7.08496 15.4334 6.61274 15.8425 6.00678C16.2515 5.40083 16.4733 4.68791 16.4801 3.95684V3.7943C16.4804 3.48295 16.6043 3.18445 16.8244 2.96429C17.0446 2.74414 17.3431 2.62031 17.6544 2.61998H20.3458C20.6571 2.62031 20.9556 2.74414 21.1758 2.96429C21.3959 3.18445 21.5198 3.48295 21.5201 3.7943V3.95684C21.5266 4.68792 21.7481 5.40093 22.157 6.007C22.5659 6.61307 23.1441 7.08539 23.8196 7.3651C24.4951 7.64481 25.2379 7.71953 25.9556 7.57995C26.6733 7.44036 27.334 7.09265 27.8554 6.58016L27.97 6.4655C28.1903 6.24529 28.4889 6.12158 28.8004 6.12158C29.1118 6.12158 29.4105 6.24529 29.6307 6.4655L31.5333 8.36936C31.7532 8.58975 31.8767 8.88836 31.8767 9.1997C31.8767 9.51103 31.7532 9.80965 31.5333 10.03L31.4187 10.1447C30.906 10.6663 30.5583 11.3272 30.4188 12.0451C30.2793 12.763 30.3542 13.5061 30.6342 14.1816C30.9142 14.8572 31.3869 15.4354 31.9934 15.8442C32.5998 16.2529 33.3132 16.474 34.0445 16.48H34.2058C34.5171 16.4803 34.8156 16.6041 35.0358 16.8243C35.2559 17.0445 35.3798 17.343 35.3801 17.6543V20.3457Z" fill="#BFBFBF"/>
<path d="M19.0016 10.1796C17.2572 10.1796 15.552 10.6968 14.1015 11.666C12.6511 12.6352 11.5206 14.0127 10.853 15.6243C10.1855 17.2359 10.0108 19.0093 10.3511 20.7203C10.6914 22.4312 11.5315 24.0027 12.765 25.2362C13.9985 26.4697 15.57 27.3098 17.2809 27.6501C18.9919 27.9904 20.7653 27.8157 22.3769 27.1482C23.9886 26.4806 25.3661 25.3501 26.3352 23.8997C27.3044 22.4493 27.8216 20.744 27.8216 18.9996C27.819 16.6612 26.8889 14.4193 25.2354 12.7658C23.5819 11.1123 21.34 10.1822 19.0016 10.1796ZM19.0016 25.2996C17.7556 25.2996 16.5376 24.9301 15.5016 24.2378C14.4655 23.5456 13.658 22.5616 13.1812 21.4105C12.7044 20.2593 12.5796 18.9926 12.8227 17.7705C13.0658 16.5484 13.6658 15.4259 14.5469 14.5448C15.4279 13.6637 16.5505 13.0637 17.7726 12.8206C18.9947 12.5775 20.2614 12.7023 21.4126 13.1791C22.5637 13.656 23.5477 14.4634 24.2399 15.4995C24.9322 16.5355 25.3016 17.7535 25.3016 18.9996C25.2996 20.6698 24.6353 22.2711 23.4542 23.4521C22.2732 24.6332 20.6719 25.2976 19.0016 25.2996Z" fill="#BFBFBF"/>
</svg>
