<svg width="51" height="58" viewBox="0 0 51 58" fill="none" xmlns="http://www.w3.org/2000/svg">
<path d="M40.7756 38.8115C38.0111 38.8115 35.5203 40.0052 33.7917 41.9044L18.2429 32.2743C18.6698 31.1831 18.8886 30.0216 18.8882 28.8498C18.8887 27.6781 18.6699 26.5166 18.2429 25.4254L33.7917 15.7948C35.5205 17.694 38.0111 18.8883 40.7756 18.8883C45.9834 18.8883 50.22 14.6517 50.22 9.44392C50.22 4.23619 45.9834 0 40.7756 0C35.568 0 31.3314 4.23664 31.3314 9.44437C31.3311 10.6161 31.55 11.7775 31.9767 12.8687L16.4283 22.4989C14.6996 20.5998 12.2089 19.4055 9.44438 19.4055C4.23664 19.4055 0 23.6425 0 28.8498C0 34.0574 4.23664 38.2942 9.44438 38.2942C12.2088 38.2942 14.6997 37.1003 16.4283 35.2007L31.9768 44.8309C31.55 45.9223 31.3311 47.0839 31.3314 48.2557C31.3314 53.463 35.5679 57.6997 40.7756 57.6997C45.9834 57.6997 50.22 53.463 50.22 48.2558C50.22 43.048 45.9834 38.8115 40.7756 38.8115ZM34.7751 9.44437C34.7751 6.13566 37.467 3.44384 40.7756 3.44384C44.0842 3.44384 46.7762 6.13566 46.7762 9.44437C46.7762 12.7531 44.0843 15.4449 40.7756 15.4449C37.4669 15.4449 34.7751 12.753 34.7751 9.44437ZM9.44438 34.8504C6.13521 34.8504 3.44338 32.1584 3.44338 28.8498C3.44338 25.5412 6.13521 22.8493 9.44438 22.8493C12.7531 22.8493 15.4445 25.5412 15.4445 28.8498C15.4445 32.1584 12.753 34.8504 9.44438 34.8504ZM34.7751 48.2554C34.7751 44.9467 37.467 42.2547 40.7756 42.2547C44.0842 42.2547 46.7762 44.9467 46.7762 48.2553C46.7762 51.564 44.0843 54.2558 40.7756 54.2558C37.4669 54.2558 34.7751 51.564 34.7751 48.2553V48.2554Z" fill="url(#paint0_linear_91_6828)"/>
<defs>
<linearGradient id="paint0_linear_91_6828" x1="25.11" y1="0" x2="25.11" y2="57.6997" gradientUnits="userSpaceOnUse">
<stop stop-color="#287BE0"/>
<stop offset="1" stop-color="#043B7D"/>
</linearGradient>
</defs>
</svg>
