<svg width="20" height="20" viewBox="0 0 20 20" fill="none" xmlns="http://www.w3.org/2000/svg">
<path d="M10 1C5.03594 1 1 5.03594 1 10C1 14.9641 5.03594 19 10 19C14.9641 19 19 14.9641 19 10C19 5.03594 14.9641 1 10 1ZM10 17.875C5.6582 17.875 2.125 14.3418 2.125 10C2.125 5.6582 5.6582 2.125 10 2.125C14.3418 2.125 17.875 5.6582 17.875 10C17.875 14.3418 14.3418 17.875 10 17.875ZM14.3523 6.96602C14.5703 7.18398 14.5703 7.54258 14.3523 7.76055L9.07891 13.034C8.96992 13.143 8.82578 13.1992 8.68164 13.1992C8.5375 13.1992 8.39336 13.143 8.28437 13.034L5.64766 10.3973C5.42969 10.1793 5.42969 9.8207 5.64766 9.60273C5.86562 9.38477 6.22422 9.38477 6.44219 9.60273L8.68164 11.8422L13.5578 6.96602C13.7758 6.74453 14.1344 6.74453 14.3523 6.96602Z" fill="white"/>
</svg>
