<svg width="20" height="20" viewBox="0 0 20 20" fill="none" xmlns="http://www.w3.org/2000/svg">
<path d="M6.90559 17.4999C13.1952 17.4999 16.6347 11.7295 16.6347 6.72579C16.6347 6.56189 16.6317 6.39869 16.6251 6.23636C17.2942 5.70002 17.8718 5.03602 18.3307 4.27546C17.7181 4.57715 17.0586 4.77999 16.3671 4.87176C17.073 4.4028 17.615 3.66121 17.8707 2.77722C17.1994 3.21817 16.4651 3.529 15.6994 3.69631C15.0754 2.96027 14.1869 2.5 13.2033 2.5C11.315 2.5 9.78362 4.19576 9.78362 6.28615C9.78362 6.58348 9.81368 6.87243 9.87228 7.14962C7.03033 6.99127 4.51016 5.48454 2.82382 3.19325C2.53028 3.75275 2.36092 4.40288 2.36092 5.0966C2.36092 6.41019 2.96462 7.57019 3.88253 8.24853C3.32154 8.22946 2.7946 8.05892 2.33391 7.77502C2.33339 7.79094 2.33339 7.8064 2.33339 7.82334C2.33339 9.65728 3.51204 11.1885 5.07689 11.5355C4.78298 11.624 4.47974 11.6688 4.17516 11.6687C3.9552 11.6687 3.74077 11.6447 3.53245 11.6004C3.96775 13.1049 5.23018 14.1998 6.72683 14.2305C5.55644 15.2463 4.08208 15.8514 2.47974 15.8514C2.20415 15.8514 1.93172 15.8339 1.66406 15.7989C3.17743 16.8732 4.97445 17.5 6.90572 17.5" fill="url(#paint0_linear_91_6975)"/>
<defs>
<linearGradient id="paint0_linear_91_6975" x1="9.9974" y1="2.5" x2="9.9974" y2="17.5" gradientUnits="userSpaceOnUse">
<stop stop-color="#287BE0"/>
<stop offset="1" stop-color="#043B7D"/>
</linearGradient>
</defs>
</svg>
