<svg width="53" height="42" viewBox="0 0 53 42" fill="none" xmlns="http://www.w3.org/2000/svg">
<path fill-rule="evenodd" clip-rule="evenodd" d="M13.7942 35.776H6.33139C3.24049 35.776 0.734375 33.2704 0.734375 30.179V5.92514C0.734375 2.83424 3.24049 0.328125 6.33139 0.328125H47.3763C50.4677 0.328125 52.9733 2.83424 52.9733 5.92514V30.179C52.9733 33.2704 50.4677 35.776 47.3763 35.776H39.9135V37.2299C39.9135 38.3287 39.477 39.3826 38.7 40.1596C37.923 40.9365 36.8692 41.3731 35.7703 41.3731H17.9374C16.8385 41.3731 15.7847 40.9365 15.0077 40.1596C14.2307 39.3826 13.7942 38.3287 13.7942 37.2299V35.776ZM17.5254 35.776V37.2299C17.5254 37.4574 17.7099 37.6419 17.9374 37.6419H35.7703C35.8796 37.6419 35.9844 37.5985 36.0616 37.5212C36.1389 37.4439 36.1823 37.3392 36.1823 37.2299V35.776H17.5254ZM49.2421 5.92514V30.179C49.2421 30.6739 49.0456 31.1484 48.6956 31.4984C48.3457 31.8483 47.8712 32.0448 47.3763 32.0448H6.33139C5.83662 32.0447 5.36216 31.8481 5.01234 31.4982C4.66253 31.1483 4.46602 30.6738 4.46602 30.179V5.92514C4.46602 5.43041 4.66255 4.95595 5.01237 4.60612C5.3622 4.2563 5.83666 4.05977 6.33139 4.05977H47.3763C47.8711 4.05977 48.3456 4.25628 48.6955 4.60609C49.0454 4.95591 49.242 5.43037 49.2421 5.92514ZM24.9883 16.0266L22.8963 18.1186C22.1683 18.8466 20.9857 18.8466 20.2577 18.1186C19.5296 17.3905 19.5296 16.208 20.2577 15.4799L25.5345 10.2031C25.8845 9.85326 26.359 9.65676 26.8538 9.65676C27.3487 9.65676 27.8232 9.85326 28.1732 10.2031L33.45 15.4799C34.1781 16.208 34.1781 17.3905 33.45 18.1186C32.722 18.8466 31.5399 18.8466 30.8118 18.1186L28.7194 16.0266V24.582C28.7194 25.6119 27.8835 26.4478 26.8541 26.4478C26.3593 26.4476 25.8849 26.2509 25.535 25.9011C25.1851 25.5512 24.9885 25.0768 24.9883 24.582V16.0266Z" fill="url(#paint0_linear_91_6810)"/>
<defs>
<linearGradient id="paint0_linear_91_6810" x1="26.8539" y1="0.328125" x2="26.8539" y2="41.3731" gradientUnits="userSpaceOnUse">
<stop stop-color="#287BE0"/>
<stop offset="1" stop-color="#043B7D"/>
</linearGradient>
</defs>
</svg>
