<svg width="60" height="60" viewBox="0 0 60 60" fill="none" xmlns="http://www.w3.org/2000/svg">
<path d="M54.7516 15.5196C54.1156 15.2101 53.4047 15.0882 52.702 15.1684C51.9992 15.2485 51.334 15.5273 50.7841 15.9721L44.3766 21.0971V19.9996C44.5234 18.733 44.3819 17.4495 43.9626 16.2453C43.5434 15.041 42.8573 13.9472 41.9557 13.0455C41.054 12.1439 39.9601 11.4578 38.7559 11.0385C37.5517 10.6193 36.2682 10.4778 35.0016 10.6246H12.5016C11.2349 10.4778 9.95146 10.6193 8.74721 11.0385C7.54297 11.4578 6.44911 12.1439 5.54746 13.0455C4.64581 13.9472 3.9597 15.041 3.54048 16.2453C3.12125 17.4495 2.97975 18.733 3.12656 19.9996V39.9996C2.97975 41.2662 3.12125 42.5497 3.54048 43.7539C3.9597 44.9582 4.64581 46.052 5.54746 46.9537C6.44911 47.8554 7.54297 48.5415 8.74721 48.9607C9.95146 49.3799 11.2349 49.5214 12.5016 49.3746H35.0016C36.2682 49.5214 37.5517 49.3799 38.7559 48.9607C39.9601 48.5415 41.054 47.8554 41.9557 46.9537C42.8573 46.052 43.5434 44.9582 43.9626 43.7539C44.3819 42.5497 44.5234 41.2662 44.3766 39.9996V38.9021L50.7841 44.0271C51.4451 44.5611 52.2693 44.8522 53.1191 44.8521C53.6842 44.8513 54.242 44.724 54.7516 44.4796C55.3902 44.1755 55.9291 43.696 56.3054 43.097C56.6817 42.4981 56.8798 41.8044 56.8766 41.0971V18.9021C56.8798 18.1948 56.6817 17.5011 56.3054 16.9022C55.9291 16.3032 55.3902 15.8237 54.7516 15.5196ZM40.6266 39.9996C40.6266 43.9421 38.9441 45.6246 35.0016 45.6246H12.5016C8.55906 45.6246 6.87656 43.9421 6.87656 39.9996V19.9996C6.87656 16.0571 8.55906 14.3746 12.5016 14.3746H35.0016C38.9441 14.3746 40.6266 16.0571 40.6266 19.9996V39.9996ZM53.1266 41.0996L44.3766 34.0996V25.8996L53.1266 18.8996V41.0996Z" fill="url(#paint0_linear_91_6783)"/>
<defs>
<linearGradient id="paint0_linear_91_6783" x1="29.9735" y1="10.5684" x2="29.9735" y2="49.4308" gradientUnits="userSpaceOnUse">
<stop stop-color="#287BE0"/>
<stop offset="1" stop-color="#043B7D"/>
</linearGradient>
</defs>
</svg>
